<svg xmlns="http://www.w3.org/2000/svg" width="201" height="154" fill="none"><g clip-path="url(#a)"><path fill="#F7A60F" stroke="#FFD050" stroke-width="2" d="M32.272 1.714 38.96 14.29l.247.464.522.06 14.15 1.622-9.894 10.245-.365.378.104.516 2.831 13.959-12.802-6.244-.472-.23-.458.258-12.401 7.005 1.983-14.104.073-.52-.388-.356-10.495-9.63 14.027-2.473.518-.091.218-.478 5.915-12.957Z"/><g filter="url(#b)"><path fill="#D9D9D9" fill-opacity=".1" d="M143.153 67.254c32.143 9.156 39.835 34.684 19.918 54.107-19.918 19.423-97.46 25.458-138.393-19.77-40.935-45.228 27.129-83.242 64.56-83.589 37.431-.347 21.772 40.095 53.915 49.252Z"/></g><g clip-path="url(#c)"><path fill="url(#d)" d="M140.584 121.904c.194 1.161-2.134 2.129-5.82 2.516-1.164.193-2.716.193-4.268.387-10.477.58-26.579 0-36.28 0-7.565 0-19.4.387-29.876.193-7.954 0-15.132-.58-18.818-1.548-1.552-.58-2.522-1.161-2.522-1.935.194-3.096 1.358-4.644 2.134-5.611.388-.387.582-.774.776-1.161.194-.387.388-.774.388-1.354 0-.581-.388-2.322-.97-4.838-1.358-6.578-3.492-18.381-.388-28.636 1.552-5.224 3.88-8.707 6.014-11.416.776-.968 1.552-1.935 2.328-2.709.582-.58 1.164-1.16 1.552-1.741 1.94-1.935 2.91-3.096 1.358-4.644-.194-.194-.388-.194-.388-.194-1.552-1.741-4.85-4.45-6.984-7.352-2.134-3.096-2.91-6.385.776-8.9 15.132-10.643 66.931-5.805 82.646 6.965 1.94 1.548 2.522 3.29 2.328 5.03-.194 1.162-.582 2.129-1.164 3.29-1.746 2.902-4.656 5.805-6.596 7.353-1.164.967-.97 1.741 0 2.708l1.552 1.548c2.134 2.129 5.626 5.612 8.148 11.997.388.774.582 1.548.776 2.515 3.686 11.61.776 24.767.194 29.024 0 .58-.194.967-.194 1.161-.194 1.741 2.91 2.515 3.298 7.352Z"/><path fill="#9E1904" d="M128.168 69.855c-2.716-2.322-4.074-.193-6.791 2.903-5.432 6.385-18.624 15.285-34.338 13.738-13.968-1.355-21.34-17.028-33.757-20.51 2.91-3.096 4.85-4.45 3.104-6.386 2.328 2.129 17.46 15.286 36.86 19.156 19.789 3.87 39.384-19.93 39.966-20.51-1.746 2.902-4.656 5.805-6.596 7.352-1.358 1.162-.388 2.129 1.552 4.257Z" opacity=".7"/><path fill="#961702" d="m137.868 107.779-.582 5.612-.194 1.161s-13.968 4.063-17.461 7.159c-3.686 3.289 15.133 2.515 15.133 2.515-9.7 1.161-29.489.387-40.547.387-13.386 0-40.159 1.161-48.695-1.354.97.193 12.61 1.741 18.818-.581 5.432-1.935-11.058-4.837-18.236-8.126.194-.387.388-.774.388-1.355 0-.58-.388-2.322-.97-4.837 0 0 12.416 14.318 50.247 12.964 34.921-.968 42.099-13.545 42.099-13.545Z" opacity=".9"/><path fill="#BE2F55" d="M103.529 79.917c-2.716-.58 10.088-5.03 15.132-8.32 5.821-4.064 7.373-5.031 6.791-4.064-.582.968-9.701 15.286-21.923 12.384ZM57.55 60.374c-.388-.193 2.328 5.805 3.492 7.933 1.164 2.129 10.865 12.77 17.655 15.286 6.596 2.516 6.596-2.515 4.268-6.385-2.522-3.87-8.924-3.676-25.415-16.834Z" opacity=".3"/><path fill="#AA1F00" d="M137.286 113.391c0 .58-.194.967-.194 1.161 0 0-14.551 3.482-16.491 6.385-1.358 2.128 5.627 3.289 9.895 3.87-10.477.58-26.579 0-36.28 0-7.565 0-19.4.387-29.876.193.388-.58.582-1.354.776-2.128.582-3.87-13.968-6.386-19.788-7.16.388-.386.582-.773.776-1.16.194-.387.388-.774.388-1.355 0-.58-.388-2.322-.97-4.837-1.358-6.579-3.492-18.382-.388-28.637 1.552-5.224 3.88-8.707 6.014-11.416-8.73 10.642 5.432 49.534 44.621 52.049 35.891 2.709 41.323-26.895 40.547-38.504.388.774.582 1.548.776 2.515 3.686 11.61.776 24.767.194 29.024Z"/><path fill="#D16018" d="M63.564 71.597c-10.282-7.74-9.118 26.12 4.268 39.085 12.999 12.577 46.367 13.351 56.649 1.161 10.089-12.19 9.895-27.476 5.627-35.796-4.463-8.514-16.103 9.868-35.503 9.868-20.177 0-28.325-12.19-31.04-14.318Z" opacity=".3"/><path fill="#911403" d="M65.31 125s-.582-2.128 21.923-3.289C108.767 120.55 121.57 125 121.57 125s-12.028-.193-26.384-.193c-14.744-.194-29.877.193-29.877.193Z"/><path fill="#BE2F55" d="M55.61 45.476c-2.328 1.741 7.954 7.74 17.849 17.027 9.7 8.9 30.458 7.546 42.292 2.709 11.447-4.644 9.895-16.834 1.552-20.123-8.536-3.483-12.61.58-31.234-3.096-19.207-3.483-25.609.193-30.459 3.483Z" opacity=".5"/><path fill="#911300" d="M55.61 47.217c-2.522-4.063 14.939-6.966 24.445-2.902 9.118 4.063 2.716 23.218 1.164 22.638-1.552-.58-6.79-4.063-13.386-9.288-6.597-5.417-10.477-7.933-12.223-10.448Z"/><path fill="#BE2F55" d="M107.603 44.315c-6.79.774-10.088 18.962-8.73 22.638 1.164 3.676 17.46-.387 22.892-5.611 5.045-5.031 4.269-18.769-14.162-17.027Z" opacity=".3"/><path fill="#C54A00" d="M47.462 45.282c.582 5.418 18.624 23.606 43.845 28.637 23.862 4.837 42.875-13.932 41.905-20.51-1.552-10.642-27.161-13.158-47.143-15.48-20.759-2.321-35.309 3.483-34.727 5.805.582 2.322 1.552 2.128 4.268.387 2.716-1.741 13.968-5.03 24.445-2.709 10.282 2.129 38.218 1.161 44.426 7.353 5.821 5.998-5.82 20.703-27.548 20.316-22.699-.58-36.279-12.964-40.159-18.188-3.88-5.417-9.312-5.61-9.312-5.61Z"/><path fill="#6D0E00" d="M134.57 54.096c-.194 1.16-.582 2.128-1.164 3.289-1.746 2.902-4.656 5.805-6.596 7.353-1.164.967-.97 1.741 0 2.708-1.164-.58-15.909 21.284-36.279 17.608-19.4-3.483-31.235-15.092-35.309-21.477 1.94-1.935 2.91-3.096 1.358-4.644-.194-.194-.388-.194-.388-.194-1.94-2.128-5.238-4.837-7.372-7.74.582.775 22.117 22.64 47.337 22.64 24.057.193 37.831-18.963 38.413-19.543Z" opacity=".5"/><path fill="#BE2F55" d="M119.631 120.743c-4.85-1.548 8.537-10.448 13.775-24.38 5.238-13.93 5.238 6.192 5.238 6.192s-1.552 10.255-2.522 11.416c-.97 1.354-16.491 6.772-16.491 6.772Z" opacity=".3"/><path fill="#A01A01" d="M66.086 121.517c-5.626-.58-19.206-8.126-20.37-12.19-.97-4.063-1.94-21.67.388-23.218 2.328-1.548 14.55 25.734 36.085 33.28 20.37 7.352-16.103 2.128-16.103 2.128Z" opacity=".7"/><path fill="url(#e)" d="M94.217 102.362c-1.746-1.935-.194-3.29 1.358-3.87 1.552-.387 6.984 4.837 7.954 4.837 0 0 1.746-4.063 1.552-5.418-.194-.967-2.716-4.643-6.014-6.578 0-2.516-.194-4.257-.194-4.45-.582-.581-5.432-.387-6.596-.194-.194 0-.194 1.741-.194 4.257-3.492 2.322-5.626 8.707-3.88 12.77 2.134 5.224 10.282 3.096 11.446 4.45 1.164 1.355-1.94 4.838-3.88 4.644h-.388c-1.746-.58-2.522-4.257-3.686-4.644-1.164-.387-3.88.774-4.462 2.516-.388 1.548 3.88 4.45 7.178 5.998.194 1.741.582 2.709.582 2.902 0 0 2.716.581 3.104 0 0-.193.194-1.161.194-2.902 2.91-1.741 5.82-6.192 6.596-8.32 1.358-3.87-8.924-4.063-10.67-5.998Z"/><path fill="#fff" d="M88.203 102.168c.582 5.224 3.686-3.096 7.566-3.676 3.686-.58 5.82 2.902 6.984 2.709 1.164-.194 1.94-2.516 1.94-3.87 0-1.355-6.208-8.127-9.506-8.127s-7.76 6.192-6.984 12.964Z" opacity=".2"/><path fill="#E02774" d="M90.725 104.49c-.388 1.354 8.924 2.515 9.7 3.289.776.581-1.552 4.064-1.164 4.838.388.774 5.044-3.29 5.432-5.418.388-2.128-7.566-2.902-9.7-4.063-2.328-1.161-4.268 1.354-4.268 1.354Z" opacity=".2"/><path fill="#fff" d="M100.231 92.107c-2.522-1.548-1.746 2.709.97 5.03 2.91 2.516 3.492-2.322-.97-5.03Z"/><path fill="#9B1803" d="M119.243 104.877c-.776 3.096-5.82 16.06-4.268 18.382 1.552 2.321 14.551 1.934 18.819 1.161 4.268-.581 5.626-14.319 5.626-14.319l-20.177-5.224Z" opacity=".7"/><path fill="#F7A60F" d="M131.272 123.839c-2.134-.774-4.268-1.741-6.014-2.902-.582-.387-1.165-.774-1.553-1.161-.97-.774-1.94-1.742-2.716-2.903-.388-.387-.582-.967-.97-1.354-.388-.58-.776-1.354-.97-1.935-.776-1.935-.97-4.063-.388-5.998v-.194c0-.193 0-.193.194-.387v-.774c.194-.58.582-1.16 1.164-1.741.194-.387.582-.58.97-.967 3.687-3.483 10.477-4.838 17.267-2.709 1.164.387 2.328.774 3.298 1.354 5.238 2.516 8.73 6.772 9.312 11.029a7.308 7.308 0 0 1 0 2.902v.194c0 .387-.194.774-.194 1.161v.193c-.97 3.096-3.686 5.418-7.178 6.386h-.194c-3.492 1.16-7.76 1.16-12.028-.194Z"/><path fill="url(#f)" d="M118.661 107.973v-.581l.582-2.515.388-1.161.194-.774h.194l.582.194.582.193 18.819 6.192 11.252 3.676.776.194.388.193h.194l-.776 1.355-.97 2.515h-.388l-.194-.194h-.194l-7.954-2.321-21.535-6.386-1.164-.387h-.582l-.194-.193Z"/><path fill="#FEC72F" d="M132.436 120.163c-2.328-.774-4.268-1.742-6.014-2.903 0 0-.195-.193-.583-.387-.194 0-.194-.193-.388-.387-1.358-.967-2.328-2.128-3.298-3.289-.194-.193-.194-.387-.388-.58-.97-1.355-1.746-2.903-2.134-4.451-.194-.774-.194-1.548-.194-2.128v-1.161c0-.58.194-1.161.388-1.741v-.194c.388-1.161.97-2.128 1.746-2.902l.388-.387c.97-.968 2.134-1.742 3.492-2.322.971-.58 2.135-.774 3.299-1.161 3.298-.774 7.178-.58 11.058.58 2.91.968 5.432 2.322 7.372 3.87l.194.194c3.298 2.709 5.238 5.998 5.432 9.481v1.935c0 .58-.194 1.161-.388 1.548-.194.58-.388.967-.582 1.548-.194.386-.388.773-.776 1.16l-.388.387c-.194.194-.388.581-.582.774-3.686 3.483-10.67 4.644-17.654 2.516Z"/><path fill="#fff" d="M133.212 95.783c-1.164.194.582 9.481.776 13.544.194 4.064-3.104 9.288-2.716 10.062.388.58 7.954 2.322 12.028 1.354 4.074-.967.388-2.128-.582-4.837-.97-2.709-1.358-12.383-.582-14.125.776-1.741 1.94-2.128 2.134-2.709.194-.58-5.238-4.256-11.058-3.289Z" opacity=".5"/><path fill="#DC9716" d="M133.794 115.906c-5.626-1.741-9.313-6.385-8.537-10.448 0-.194 0-.387.194-.581 1.359-4.257 7.179-6.192 13.193-4.257 6.014 1.935 9.7 6.772 8.342 11.029 0 .194-.194.387-.194.581-1.746 3.869-7.372 5.417-12.998 3.676Z"/><path fill="#F7A60F" d="M133.794 115.906c-5.626-1.741-9.313-6.385-8.537-10.448 1.747-3.87 7.373-5.418 12.999-3.677 5.626 1.742 9.312 6.385 8.536 10.449-1.746 3.869-7.372 5.417-12.998 3.676Z"/><path fill="#fff" d="M137.092 95.977c3.686.58-2.716 5.611-5.432-.194 0 0 2.522-.194 5.432.194Z"/><path fill="#fff" d="M126.228 117.26s-.194-.193-.582-.387c-.776-.58-2.329-1.741-3.687-3.482-1.164-1.355-2.134-3.096-2.522-5.031-.194-.581-.194-1.355-.194-2.129V104.684c0-.387.194-.774.194-.968 0-.193.194-.58.194-.774.582-1.354 1.164-2.515 1.94-3.29 1.552-1.547 3.105-2.321 3.493-2.321.388-.194-1.553.967-3.299 3.096a10.244 10.244 0 0 0-1.552 2.902c-.194.387-.194.774-.194 1.161v.387c-.194 1.354 0 2.709.388 3.87 1.552 4.644 5.433 8.126 5.821 8.513Z" opacity=".5"/><path fill="#FFE016" d="M129.914 100.62s-7.178 4.064-3.492 10.062c0 0-4.851-6.966 3.492-10.062Z"/><path fill="#FEC72F" d="M141.942 101.975c-1.94-.387 3.492 2.902 3.686 8.126.194 5.225-8.73 6.385-8.73 6.385s7.954 1.548 10.088-5.03c1.746-5.031-5.044-9.481-5.044-9.481Z" opacity=".5"/><path fill="#fff" d="M143.688 124.033c.388-.194 1.552-.581 2.716-1.355 1.358-.967 3.104-2.709 4.268-5.031v-.193l.582-1.161v-.387c.194-.581.388-1.354.582-2.128v-.581c.776-3.87-.388-6.966-1.746-9.287-1.164-1.742-2.328-3.096-2.91-3.483 3.298 2.709 5.238 5.998 5.432 9.481v1.935c0 .58-.194 1.161-.388 1.548-.194.58-.388.967-.582 1.548l-.97 2.515c-.776 3.096-3.492 5.418-6.984 6.579Z" opacity=".8"/><path fill="#D42F55" d="M120.989 116.873c-.388-.387-.582-.967-.97-1.354-.388-.774-.776-1.354-.97-1.935-.776-1.935-.97-4.063-.388-5.998l.582-2.515c0-.581.194-1.161.388-1.742v-.193c.388-1.161.97-2.129 1.746-2.903l.388-.387c1.552-1.548 3.105-2.322 3.493-2.322.97-.58 2.134-.774 3.298-1.16-.194 0-3.88 1.354-6.597 4.256-.776.774-1.552 1.742-2.134 2.903-.388.774-.582 1.548-.776 2.515v.193c0 .194 0 .387-.194.774v.194c0 .58-.194 1.161-.194 1.548-.194 4.257 1.358 7.546 1.94 8.513.194-.58.388-.387.388-.387Z" opacity=".8"/><path fill="#fff" d="M136.898 120.743c-3.88-1.161 6.014-4.644 8.73-4.644s1.94 2.709 0 3.87c-1.94.968-6.79 1.355-8.73.774Z"/><path fill="url(#g)" d="M106.439 69.855c-2.328.58-4.462.774-6.596.58-.582 0-1.358 0-1.94-.193-1.358-.193-2.522-.58-3.88-.967-.582-.194-.97-.387-1.552-.58-.582-.388-1.358-.775-1.746-1.161-1.746-1.355-2.91-2.903-3.492-4.838v-3.289c0-.387.194-.968.194-1.354 1.358-5.031 6.402-9.482 13.386-11.223a11.01 11.01 0 0 1 3.492-.58c5.82-.58 10.864 1.16 13.774 4.45.582.774 1.164 1.548 1.552 2.322.194.387.194.774.388 1.16v.194c.776 3.096-.388 6.579-2.716 9.288l-.194.193c-2.522 2.709-6.208 4.837-10.67 5.998Z"/><path fill="url(#h)" d="m87.427 63.083-.194-.58-.776-2.516-.388-1.16-.388-.775h.388l.582-.193.582-.194 19.206-4.643 11.446-2.71.776-.193h.582l.194 1.548.388 2.71H119.243l-.194.193-7.954 2.128-21.728 5.805-.97.193h-.194l-.388.194h-.194l-.194.193Z"/><path fill="url(#i)" d="M105.469 66.179c-2.328.58-4.656.774-6.79.58h-1.164c-1.552-.193-3.104-.58-4.462-.967-.194 0-.388-.194-.582-.194-1.552-.773-3.104-1.547-4.268-2.708-.582-.58-.97-1.161-1.358-1.742-.194-.193-.194-.387-.388-.58 0-.194-.194-.387-.194-.387-.194-.58-.388-1.161-.582-1.548v-.194a10.494 10.494 0 0 1 0-3.482v-.387c.388-1.355.776-2.516 1.746-3.87.582-.968 1.358-1.935 2.328-2.71 2.522-2.32 5.82-4.256 9.894-5.223 2.91-.774 5.82-.774 8.342-.58h.194c4.074.58 7.566 2.515 9.7 5.224.194.193.194.386.388.58l.194.193c0 .194.194.387.194.58 0 0 0 .194.194.194.194.58.388.968.582 1.548.194.58.194.968.194 1.548v1.935c0 .387-.194.58-.194.968-1.358 4.643-6.79 9.48-13.968 11.222Z"/><path fill="#fff" d="M93.44 44.895c-.97.774 5.433 7.74 7.761 11.222 2.134 3.483 2.328 9.482 2.91 9.869.582.386 7.954-2.129 11.058-5.031 3.104-3.096-.776-1.935-3.104-3.676-2.328-1.742-7.566-9.869-7.954-11.803-.194-1.935.582-2.903.388-3.483-.388-.774-6.596-.774-11.058 2.902Z" opacity=".5"/><path fill="url(#j)" d="M104.499 61.922c-5.82 1.355-11.252-.58-12.804-4.45 0-.194-.194-.387-.194-.58-1.164-4.257 2.91-9.095 9.118-10.449 6.014-1.548 11.834.774 12.998 5.03 0 .194 0 .388.194.581.388 4.063-3.492 8.32-9.312 9.868Z"/><path fill="#FF9304" d="M104.499 61.922c-5.82 1.355-11.252-.58-12.804-4.45-.582-4.063 3.298-8.514 9.118-9.868 5.82-1.355 11.252.58 12.804 4.45.582 4.063-3.298 8.32-9.118 9.868Z"/><path fill="#fff" d="M96.933 43.154c3.492-1.355.582 6.191-4.85 2.708 0 0 2.134-1.547 4.85-2.708Z"/><path fill="#fff" d="M98.679 66.76h-.582c-.97 0-2.91-.388-5.044-1.162-1.746-.58-3.492-1.547-4.85-2.902-.388-.387-.97-.967-1.164-1.548 0-.193-.194-.193-.194-.387-.194-.193-.194-.387-.388-.58v-.194c-.194-.387-.194-.774-.388-.967 0-.194-.194-.58-.194-.774-.388-1.548-.194-2.709 0-3.87.388-2.128 1.552-3.676 1.746-3.87.194-.387-.776 1.548-1.164 4.257-.194.968 0 2.129.194 3.29.194.386.194.773.388 1.16 0 .194 0 .194.194.387.582 1.161 1.358 2.322 2.328 3.096 3.492 3.096 8.73 4.063 9.118 4.063Z" opacity=".5"/><path fill="#FFE016" d="M93.053 50.7s-4.074 7.159 2.328 10.448c0 .194-7.76-3.289-2.328-10.448Z"/><path fill="#D42F55" d="M104.111 45.862c-1.746.774 4.462.581 7.566 5.031 3.104 4.45-4.074 10.062-4.074 10.062s7.566-2.903 6.014-9.675c-1.358-5.417-9.506-5.418-9.506-5.418Z" opacity=".5"/><path fill="#D42F55" d="M117.109 63.664c.194-.387.97-1.161 1.552-2.516.776-1.548 1.358-3.87.97-6.578v-.194c0-.387-.194-.774-.194-1.354v-.387c-.194-.58-.388-1.355-.582-2.129 0-.193-.194-.387-.194-.387-1.358-3.676-4.074-5.804-6.208-6.965-1.94-.968-3.492-1.355-4.268-1.548 4.074.58 7.566 2.515 9.7 5.224.194.194.194.387.388.58 0 0 0 .194.194.194 0 .194.194.387.194.58 0 0 0 .194.194.194.194.58.388.967.582 1.548.194.58.194.967.194 1.548l.388 2.709c.582 3.289-.582 6.578-2.91 9.48ZM94.023 69.275c-.582-.194-.97-.387-1.552-.58-.776-.388-1.358-.775-1.746-1.161-1.746-1.355-2.91-2.903-3.492-4.838l-.776-2.515c-.194-.58-.388-1.161-.582-1.548v-.194a10.488 10.488 0 0 1 0-3.482v-.387c.388-2.129 1.552-3.677 1.746-3.87.582-.968 1.358-1.935 2.328-2.709-.194.194-2.522 3.096-3.298 6.966-.194 1.16-.388 2.322-.194 3.482 0 .774.194 1.742.582 2.516v.193c0 .194.194.387.194.58v.194c.194.58.388.968.776 1.355 2.134 3.87 5.044 5.61 6.014 6.191-.194-.193 0-.193 0-.193Z" opacity=".8"/><path fill="#F7A60F" d="M71.519 59.794c-2.329-.58-4.269-1.354-6.209-2.322l-1.746-1.16c-1.164-.775-2.134-1.742-2.91-2.516-.194-.58-.582-.968-.776-1.355-.388-.58-.776-1.16-1.164-1.935-.97-1.934-1.164-3.87-.776-5.804v-.194c0-.193 0-.193.194-.387v-.774c.388-.967.776-1.548 1.164-2.128.194-.387.582-.774.776-.968 3.492-3.87 10.088-5.61 17.073-3.87 1.164.194 2.328.581 3.492 1.161 5.432 2.129 9.118 5.999 10.088 10.255.194.968.388 1.935.194 2.903v.193c0 .387 0 .774-.194 1.161v.194c-.776 3.096-3.298 5.611-6.79 6.965h-.194c-3.492 1.161-7.76 1.548-12.222.58Z"/><path fill="url(#k)" d="m57.744 44.895.194-.387.388-2.709.194-1.16v-.775h.388l.582.194.582.193 19.013 4.644 11.64 2.709.776.194.582.193-.582 1.354-.776 2.71h-.388l-.194-.194h-.194L81.8 50.119l-21.923-4.643-1.164-.387h-.776l-.194-.194Z"/><path fill="#FEC72F" d="M72.489 56.117c-2.329-.58-4.463-1.354-6.403-2.515 0 0-.194-.193-.582-.387-.194 0-.194-.193-.388-.193-1.358-.968-2.522-1.935-3.492-2.903-.194-.193-.194-.387-.388-.387-1.164-1.354-1.94-2.902-2.522-4.256-.194-.774-.388-1.355-.388-2.129v-1.16c0-.581 0-1.162.194-1.742v-.194c.388-1.16.776-2.128 1.552-3.095 0-.194.194-.194.194-.387.776-.968 1.94-1.935 3.298-2.71.97-.58 2.134-.967 3.298-1.354 3.299-1.548 7.179-1.548 11.253-.774 2.91.58 5.432 1.935 7.76 3.29l.194.193c3.492 2.322 5.626 5.611 6.208 8.9v1.936c0 .58 0 1.16-.194 1.547-.194.58-.194.968-.582 1.548l-.582 1.161c0 .194-.194.194-.194.387-.194.194-.388.58-.582.774-3.492 4.257-10.476 5.998-17.654 4.45Z"/><path fill="#fff" d="M71.519 31.544c-1.165.194 1.358 9.481 1.746 13.351.388 4.063-2.329 9.481-1.94 10.255.388.58 7.954 1.742 12.028.387 4.074-1.354.388-2.128-.97-4.644-1.358-2.515-2.328-12.19-1.552-14.124.776-1.935 1.746-2.129 1.94-2.903-.194-.58-5.626-3.483-11.252-2.322Z" opacity=".5"/><path fill="#DC9716" d="M73.459 51.667c-5.82-1.354-9.895-5.611-9.313-9.868 0-.193 0-.387.194-.58.97-4.257 6.79-6.579 12.805-5.224 6.014 1.354 10.282 5.998 9.118 10.448 0 .194-.194.387-.194.58-1.358 4.064-6.79 5.999-12.61 4.644Z"/><path fill="#F7A60F" d="M73.459 51.667c-5.82-1.354-9.895-5.61-9.313-9.868 1.358-3.87 6.79-5.998 12.61-4.643 5.82 1.354 9.895 5.61 9.313 9.867-1.358 4.064-6.79 5.999-12.61 4.644Z"/><path fill="#fff" d="M75.398 31.738c3.687.387-2.328 5.804-5.432.193-.194 0 2.329-.58 5.433-.193Z"/><path fill="#fff" d="M66.086 53.602s-.194-.193-.582-.387c-.776-.58-2.522-1.741-3.88-3.29-1.164-1.16-2.328-2.901-2.91-4.836-.194-.58-.388-1.355-.388-1.935v-1.548c0-.387 0-.774.194-.968 0-.193.194-.58.194-.774.388-1.547.97-2.708 1.746-3.482a9.623 9.623 0 0 1 3.298-2.71c.388-.193-1.552.968-3.104 3.29-.582.774-1.164 1.935-1.358 3.096 0 .387-.194.774-.194 1.16v.388c0 1.354.194 2.709.582 3.87 1.94 4.643 6.014 7.74 6.402 8.126Z" opacity=".5"/><path fill="#FFE016" d="M68.415 36.769s-6.985 4.45-2.717 10.448c0-.194-5.238-6.772 2.717-10.448Z"/><path fill="#FAB61F" d="M80.637 37.349c-1.94-.193 3.686 2.515 4.268 7.933.582 5.224-8.148 6.966-8.148 6.966s8.148.967 9.7-5.805c1.164-5.418-5.82-9.094-5.82-9.094Z" opacity=".5"/><path fill="#D42F55" d="M83.935 59.02c.388-.194 1.358-.58 2.522-1.548 1.358-1.16 2.91-2.902 3.88-5.418v-.193c.194-.387.194-.774.388-1.161v-.387c.194-.58.388-1.355.388-2.129v-.58c.388-3.87-.97-6.966-2.328-9.094-1.164-1.741-2.522-2.902-3.104-3.29 3.492 2.322 5.626 5.612 6.208 8.901v1.935c0 .58 0 1.161-.194 1.548-.194.58-.194.968-.582 1.548l-.776 2.515c-.388 3.483-2.91 5.998-6.402 7.353ZM60.848 53.602c-.388-.387-.776-.774-.97-1.16-.388-.581-.776-1.355-1.164-1.936-.97-1.935-1.164-3.87-.776-5.804l.388-2.516c0-.58 0-1.16.194-1.741v-.194c.388-1.16.776-2.128 1.552-3.095 0-.194.194-.194.194-.387 1.358-1.742 2.91-2.516 3.298-2.71.97-.58 2.134-.967 3.298-1.354-.194 0-3.686 1.548-6.208 4.644-.776.968-1.358 1.935-1.746 2.902-.388.774-.582 1.548-.582 2.516v2.709c.194 4.256 1.94 7.352 2.522 8.32-.194-.387 0-.194 0-.194Z" opacity=".8"/><path fill="#F7A60F" d="M78.115 70.436c-2.328-.58-4.268-1.355-6.208-2.322l-1.746-1.161c-1.165-.774-2.135-1.742-2.91-2.515-.389-.387-.776-.774-.97-1.355-.389-.58-.777-1.16-1.165-1.935-.97-1.935-1.164-3.87-.776-5.804v-.194c0-.193 0-.193.194-.387v-.774c.194-.58.582-1.16.97-1.741.194-.387.582-.774.776-.968 3.492-3.87 10.089-5.61 17.073-3.87 1.164.194 2.328.58 3.492 1.161 5.432 2.129 9.118 5.999 10.088 10.255.194.968.388 1.935.194 2.903v.193c0 .387 0 .774-.194 1.161v.194c-.776 3.096-3.298 5.61-6.79 6.965h-.194c-3.104.968-7.372 1.161-11.834.194Z"/><path fill="url(#l)" d="M64.34 55.73v-.58l.388-2.709.195-1.16.194-.775h.387l.388.194.583.193 19.206 4.644 11.446 2.709.776.193.582.194-.388 1.548-.97 2.515h-.194l-.388-.193h-.194l-8.148-1.742-21.922-4.644-.97-.193h-.195v-.194h-.776Z"/><path fill="#FEC72F" d="M78.89 66.76c-2.327-.581-4.461-1.355-6.401-2.516 0 0-.195-.193-.583-.387-.194 0-.194-.193-.388-.193-1.358-.968-2.522-1.935-3.492-2.903-.194-.193-.194-.387-.388-.387-1.164-1.354-1.94-2.902-2.522-4.257-.194-.773-.388-1.354-.388-2.128v-1.16c0-.581 0-1.162.194-1.742v-.194c.388-1.16.776-2.128 1.552-3.096 0-.193.194-.193.194-.386.776-.968 1.94-1.935 3.298-2.71.97-.58 2.135-.967 3.299-1.354 3.298-.967 7.178-1.16 11.058-.193 2.91.58 5.432 1.935 7.76 3.289l.194.194c3.492 2.321 5.626 5.61 6.208 8.9v1.935c0 .58 0 1.16-.194 1.548-.194.58-.194.967-.582 1.548l-.582 1.16c0 .194-.194.194-.194.388-.194.193-.388.58-.582.774-3.298 3.676-10.282 5.61-17.46 3.87Z"/><path fill="#fff" d="M77.92 42.38c-1.163.193 1.359 9.48 1.747 13.35.388 4.064-2.328 9.482-1.94 10.256.388.58 7.954 1.74 12.028.386 4.074-1.354.388-2.128-.97-4.643-1.358-2.516-2.328-12.19-1.552-14.125.776-1.935 1.746-2.128 1.94-2.902 0-.774-5.626-3.677-11.252-2.322Z" opacity=".5"/><path fill="#DC9716" d="M80.055 62.503c-5.82-1.355-9.895-5.611-9.312-9.868 0-.194 0-.387.194-.58.97-4.258 6.79-6.58 12.804-5.225 6.014 1.354 10.282 5.998 9.118 10.449 0 .193-.194.386-.194.58-1.358 3.87-6.984 5.998-12.61 4.644Z"/><path fill="#F7A60F" d="M80.055 62.503c-5.82-1.355-9.895-5.611-9.312-9.868 1.358-3.87 6.79-5.998 12.61-4.644 5.82 1.354 9.894 5.611 9.312 9.868-1.358 3.87-6.984 5.998-12.61 4.644Z"/><path fill="#fff" d="M81.8 42.38c3.687.387-2.327 5.804-5.431.193 0 0 2.522-.387 5.432-.193Z"/><path fill="#fff" d="M72.683 64.244s-.194-.193-.582-.387c-.776-.58-2.522-1.741-3.88-3.29-1.165-1.354-2.329-2.902-2.91-4.837-.195-.58-.389-1.354-.389-1.934v-1.548c0-.387 0-.774.195-.968 0-.193.194-.58.194-.774.387-1.354.97-2.515 1.745-3.483 1.359-1.74 2.91-2.515 3.299-2.708.388-.194-1.552.967-2.91 3.289-.582.774-1.164 1.935-1.358 3.096 0 .387-.195.774-.195 1.16v.388c0 1.354.195 2.709.583 3.87 1.552 4.643 5.82 7.933 6.208 8.126Z" opacity=".5"/><path fill="#FFE016" d="M75.01 47.41s-6.984 4.45-2.715 10.449c0 0-5.433-6.772 2.716-10.449Z"/><path fill="#FAB61F" d="M87.039 47.99c-1.94-.193 3.686 2.516 4.268 7.934.582 5.224-8.148 6.966-8.148 6.966s8.148.967 9.7-5.805c1.358-5.418-5.82-9.094-5.82-9.094Z" opacity=".5"/><path fill="#D42F55" d="M90.53 69.662c.389-.194 1.359-.58 2.523-1.548 1.358-1.161 2.91-2.902 3.88-5.418v-.193c.194-.387.194-.774.388-1.161v-.387c.194-.58.388-1.355.388-2.129v-.58c.388-3.87-.97-6.966-2.328-9.094-1.164-1.742-2.522-2.903-3.104-3.29 3.492 2.322 5.626 5.612 6.208 8.901v1.935c0 .58 0 1.16-.194 1.548-.194.58-.194.967-.582 1.548l-.776 2.515c-.582 3.483-3.104 5.998-6.402 7.353ZM67.25 64.244c-.388-.387-.775-.774-.97-1.354-.388-.58-.776-1.355-1.164-1.935-.97-1.935-1.164-3.87-.776-5.805l.388-2.515c0-.58 0-1.161.194-1.742V50.7c.389-1.161.776-2.129 1.553-3.096 0-.194.194-.194.194-.387 1.358-1.741 2.91-2.515 3.297-2.709.97-.58 2.135-.967 3.299-1.354-.194 0-3.686 1.548-6.209 4.643-.775.968-1.358 1.935-1.745 2.903-.389.774-.583 1.548-.583 2.515v2.709c.194 4.257 1.94 7.353 2.523 8.32Z" opacity=".8"/><path fill="#F7A60F" d="M106.439 63.277c-2.328.58-4.462.774-6.596.58-.582 0-1.358 0-1.94-.193-1.358-.194-2.522-.58-3.88-.968-.582-.193-.97-.387-1.552-.58-.582-.387-1.358-.774-1.746-1.161-1.746-1.355-2.91-2.903-3.492-4.837v-3.29c0-.387.194-.967.194-1.354 1.358-5.031 6.402-9.481 13.386-11.223a11.011 11.011 0 0 1 3.492-.58c5.82-.58 10.864 1.16 13.774 4.45.582.774 1.164 1.548 1.552 2.322.194.387.194.774.388 1.161v.194c.776 3.095-.388 6.578-2.716 9.287l-.194.194c-2.522 2.708-6.208 4.837-10.67 5.998Z"/><path fill="url(#m)" d="m87.427 56.311-.194-.387-.776-2.515h-.194l-.194-1.161h-.194l-.194-.774.388-.194h.388l.776-.193 19.012-4.644 11.64-2.709.776-.193.582-.194.194 1.548.388 2.709-.194.193H119.049l-7.954 2.322-21.728 5.611-.97.388h-.194l-.388.193h-.388Z"/><path fill="#FEC72F" d="M105.469 59.6c-2.328.58-4.656.774-6.79.58h-1.164c-1.552-.193-3.104-.58-4.462-.967-.194 0-.388-.193-.582-.193-1.552-.774-3.104-1.548-4.268-2.709-.582-.58-.97-1.161-1.358-1.741-.194-.194-.194-.387-.388-.58 0-.194-.194-.388-.194-.388-.194-.58-.388-1.16-.582-1.548v-.193a10.494 10.494 0 0 1 0-3.483v-.387c.388-1.355.776-2.516 1.746-3.87.582-.967 1.358-1.935 2.328-2.709 2.522-2.322 5.82-4.256 9.894-5.224 2.91-.774 5.82-.774 8.342-.58h.194c4.074.58 7.566 2.515 9.7 5.224.194.193.194.387.388.58l.194.194c0 .193.194.387.194.58 0 0 0 .194.194.194.194.58.388.967.582 1.548.194.58.194.967.194 1.547v1.935c0 .387-.194.58-.194.968-1.358 4.644-6.79 9.48-13.968 11.222Z"/><path fill="#fff" d="M93.44 38.316c-.97.774 5.433 7.74 7.761 11.223 2.134 3.483 2.328 9.48 2.91 9.868.582.387 7.954-2.128 11.058-5.03 3.104-3.097-.776-1.936-3.104-3.677-2.328-1.742-7.566-9.868-7.954-11.803-.194-1.935.582-2.902.388-3.483-.388-.774-6.596-.774-11.058 2.902Z" opacity=".5"/><path fill="url(#n)" d="M104.499 55.344c-5.82 1.354-11.252-.58-12.804-4.45 0-.194-.194-.388-.194-.581-1.164-4.257 2.91-9.094 9.118-10.449 6.014-1.547 11.834.774 12.998 5.031 0 .194 0 .387.194.58.388 4.064-3.686 8.32-9.312 9.869Z"/><path fill="#FF9304" d="M104.499 55.343c-5.82 1.355-11.252-.58-12.804-4.45-.582-4.063 3.298-8.513 9.118-9.868 5.82-1.354 11.252.58 12.804 4.45.582 4.064-3.492 8.32-9.118 9.868Z"/><path fill="#fff" d="M96.933 36.575c3.492-1.354.582 6.192-4.85 2.709 0 0 2.134-1.548 4.85-2.709Z"/><path fill="#fff" d="M98.679 60.18h-.582c-.97 0-2.91-.386-5.044-1.16-1.746-.58-3.492-1.548-4.85-2.903-.388-.386-.97-.967-1.164-1.547 0-.194-.194-.194-.194-.387-.194-.194-.194-.387-.388-.58v-.194c-.194-.387-.194-.774-.388-.968 0-.193-.194-.58-.194-.774-.388-1.548-.194-2.709 0-3.87.388-2.128 1.552-3.676 1.746-3.87.194-.386-.776 1.549-1.164 4.257-.194.968 0 2.129.194 3.29.194.387.194.774.388 1.16 0 .194 0 .194.194.388.582 1.16 1.358 2.322 2.328 3.096 3.492 3.095 8.73 4.063 9.118 4.063Z" opacity=".5"/><path fill="#FFE016" d="M93.053 44.121s-4.074 7.16 2.328 10.449c0 0-7.76-3.29-2.328-10.449Z"/><path fill="#D42F55" d="M104.111 39.09c-1.746.774 4.462.58 7.566 5.031 3.104 4.45-4.074 10.062-4.074 10.062s7.566-2.903 6.014-9.675c-1.552-5.224-9.506-5.418-9.506-5.418Z" opacity=".5"/><path fill="#D42F55" d="M117.109 56.892c.194-.388.97-1.162 1.552-2.516.776-1.548 1.358-3.87.97-6.578v-.194c0-.387-.194-.774-.194-1.355v-.386c-.194-.58-.388-1.355-.582-2.129 0-.193-.194-.387-.194-.387-1.358-3.676-4.074-5.805-6.208-6.965-1.94-.968-3.492-1.355-4.268-1.548 4.074.58 7.566 2.515 9.7 5.224.194.193.194.387.388.58 0 0 0 .194.194.194 0 .193.194.387.194.58 0 0 0 .194.194.194.194.58.388.967.582 1.548.194.58.194.967.194 1.548l.388 2.709c.582 3.482-.582 6.772-2.91 9.48ZM94.023 62.696c-.582-.193-.97-.387-1.552-.58-.776-.387-1.358-.774-1.746-1.161-1.746-1.355-2.91-2.903-3.492-4.837l-.776-2.516c-.194-.58-.388-1.16-.582-1.548v-.193a10.489 10.489 0 0 1 0-3.483v-.387c.388-2.128 1.552-3.676 1.746-3.87.582-.967 1.358-1.935 2.328-2.709-.194.194-2.522 3.096-3.298 6.966-.194 1.16-.388 2.322-.194 3.483 0 .774.194 1.741.582 2.515v.194c0 .193.194.387.194.58v.194c.194.58.388.967.776 1.354 2.134 3.87 5.044 5.611 6.014 6.192-.194-.194 0-.194 0-.194Z" opacity=".8"/><path fill="#F7A60F" d="M102.753 58.633c-2.134-.774-4.268-1.742-6.014-2.902-.582-.387-1.164-.774-1.552-1.161-.97-.774-1.94-1.742-2.716-2.903-.388-.387-.582-.967-.97-1.354-.388-.58-.776-1.355-.97-1.935-.776-1.935-.97-4.063-.388-5.998v-.194c0-.193 0-.193.194-.387v-.774c.194-.58.582-1.16 1.164-1.741.194-.387.582-.58.97-.968 3.88-3.676 10.67-4.837 17.46-2.708 1.164.387 2.328.774 3.298 1.354 5.238 2.515 8.73 6.772 9.312 11.029a7.31 7.31 0 0 1 0 2.902v.194c0 .387-.194.774-.194 1.16v.194c-.97 3.096-3.686 5.418-7.178 6.385h-.194c-3.686 1.161-7.954 1.161-12.222-.193Z"/><path fill="url(#o)" d="M90.143 42.767v-.581l.582-2.515.388-1.161.194-.774h.194l.582.194.582.193 18.818 6.192 11.252 3.676.776.193.388.194h.194l-.776 1.354-.97 2.516H121.765l-.194-.194-7.954-2.322-21.534-6.385-1.164-.193v-.194h-.582l-.194-.193Z"/><path fill="#FEC72F" d="M103.917 54.957c-2.328-.774-4.268-1.742-6.014-2.903 0 0-.194-.193-.582-.387-.194 0-.194-.193-.388-.387-1.358-.967-2.328-2.128-3.298-3.289-.194-.194-.194-.387-.388-.58-.97-1.355-1.746-2.903-2.134-4.45-.194-.775-.194-1.549-.194-2.13v-1.16c0-.58.194-1.161.388-1.742v-.193c.388-1.161.97-2.128 1.746-2.902l.388-.387c.97-.968 2.134-1.742 3.492-2.322.97-.58 2.134-.774 3.298-1.161 3.298-.774 7.178-.58 11.058.58 2.91.774 5.432 2.129 7.372 3.87l.194.194c3.298 2.708 5.238 5.998 5.432 9.48v1.935c0 .581-.194 1.161-.388 1.548-.194.58-.388.968-.582 1.548-.194.387-.388.774-.776 1.161l-.388.387c-.194.194-.388.58-.582.774-3.686 3.483-10.67 4.837-17.654 2.516Z"/><path fill="#fff" d="M104.693 30.577c-1.164.193.582 9.48.776 13.544.194 4.063-3.104 9.288-2.716 10.062.388.58 7.954 2.322 12.028 1.354 4.074-.967.388-2.128-.582-4.837-.97-2.709-1.358-12.384-.582-14.125.776-1.741 1.94-2.128 2.134-2.709 0-.774-5.238-4.257-11.058-3.29Z" opacity=".5"/><path fill="#DC9716" d="M105.275 50.7c-5.626-1.742-9.312-6.385-8.536-10.449 0-.193 0-.387.194-.58 1.164-4.257 7.178-6.192 13.192-4.257 6.014 1.935 9.7 6.772 8.342 11.029 0 .194-.194.387-.194.58-1.746 3.87-7.372 5.418-12.998 3.677Z"/><path fill="#F7A60F" d="M105.275 50.7c-5.626-1.742-9.312-6.385-8.536-10.449 1.746-3.87 7.372-5.417 12.998-3.676 5.626 1.741 9.312 6.385 8.536 10.448-1.746 3.87-7.372 5.418-12.998 3.677Z"/><path fill="#fff" d="M108.573 30.964c3.686.58-2.716 5.418-5.432-.387 0 0 2.522-.194 5.432.387Z"/><path fill="#fff" d="M97.709 52.054s-.194-.193-.582-.387c-.776-.58-2.328-1.741-3.686-3.483-1.164-1.354-2.134-3.095-2.522-5.03-.194-.58-.194-1.355-.194-2.129v-1.548c0-.387.194-.774.194-.967 0-.194.194-.58.194-.774.582-1.354 1.164-2.515 1.94-3.29 1.552-1.547 3.104-2.321 3.492-2.321.388-.194-1.552.967-3.298 3.096a10.247 10.247 0 0 0-1.552 2.902c-.194.387-.194.774-.194 1.16v.388c-.194 1.354 0 2.709.388 3.87 1.552 4.643 5.432 8.126 5.82 8.513Z" opacity=".5"/><path fill="#FFE016" d="M101.395 35.414s-7.178 4.063-3.492 10.062c0 0-4.85-6.966 3.492-10.062Z"/><path fill="#FAB61F" d="M113.423 36.769c-1.94-.387 3.492 2.902 3.686 8.126.194 5.224-8.73 6.385-8.73 6.385s7.954 1.548 10.088-5.03c1.746-5.031-5.044-9.481-5.044-9.481Z" opacity=".5"/><path fill="#D42F55" d="M115.169 58.826c.388-.193 1.552-.58 2.716-1.354 1.358-.968 3.104-2.709 4.268-5.03v-.194l.582-1.161V50.7c.194-.58.388-1.355.582-2.129v-.58c.776-3.87-.388-6.966-1.746-9.288-.97-1.547-2.134-2.708-2.716-3.289 3.298 2.709 5.238 5.998 5.432 9.481v1.935c0 .58-.194 1.161-.388 1.548-.194.58-.388.967-.582 1.548l-.97 2.515c-.97 2.903-3.686 5.224-7.178 6.385ZM92.47 51.667c-.387-.387-.581-.967-.97-1.354-.387-.774-.775-1.355-.97-1.935-.775-1.935-.97-4.063-.387-5.998l.582-2.516c0-.58.194-1.16.388-1.741v-.194c.388-1.16.97-2.128 1.746-2.902l.388-.387c1.552-1.548 3.104-2.322 3.492-2.322.97-.58 2.134-.774 3.298-1.16-.194 0-3.88 1.354-6.596 4.256-.776.774-1.552 1.742-2.134 2.902-.388.774-.582 1.548-.776 2.516v.193c0 .194 0 .387-.194.774v.194c0 .58-.194 1.16-.194 1.548-.194 4.257 1.358 7.546 1.94 8.513.194-.58.388-.387.388-.387Z" opacity=".8"/><path fill="#fff" d="M110.513 55.73c-3.104-.386 3.88-5.224 6.79-5.417 2.91-.194 2.328 2.128 1.746 3.096-.582.967-5.238 2.709-8.536 2.322Z"/><path fill="#D4540C" d="M89.949 45.804s5.044 5.225 12.998 8.707c8.148 3.483 12.61 3.677 12.61 3.677s-3.88 7.159-11.446 7.933-7.76-2.902-7.76-2.902-13.968 2.708-20.176-5.805C69.966 48.9 90.53 40 90.53 40s-1.164 3.676-.582 5.804Z" opacity=".23"/><path fill="#FFE0B3" d="M72.295 90.559c-3.105-2.129-5.627 5.03-2.523 7.159 3.105 2.128 5.627-4.837 2.523-7.16Z" opacity=".5"/><path fill="#D66B0C" d="M96.157 74.693c-3.686-5.999 9.894-4.45 19.594-8.707 9.7-4.257 0 8.707-19.594 8.707Z"/><path fill="#D66B0D" d="M126.81 47.797c-1.358.194-.194 4.838-1.552 9.095-1.358 4.256 7.178 1.16 7.178-2.903-.194-4.063-5.626-6.191-5.626-6.191Z"/></g></g><g filter="url(#p)" transform="rotate(-23.862 170.679 68.679)"><circle cx="170.679" cy="68.679" r="22.5" fill="#FFA401" fill-opacity=".3"/><circle cx="170.679" cy="68.679" r="21" stroke="#FEC72F" stroke-width="3"/></g><path fill="#FEC72F" fill-rule="evenodd" d="M162.154 58.94c.027.074.33.815.675 1.646l.626 1.51-2.519 1.173-2.52 1.173.504 1.138.504 1.138 1.783-.789 1.783-.788 2.563 5.795 2.564 5.796-1.177.583-1.178.583-.054 1.18c-.03.65-.034 1.24-.01 1.313.025.073 1.158-.334 2.519-.904l2.473-1.035.771 1.604.771 1.604 1.063-.47 1.063-.47-.739-1.671-.739-1.67 1.07-.474 1.069-.473.739 1.67.74 1.671 1.159-.513 1.159-.512-.733-1.655-.732-1.656.703-.46c1.904-1.245 3.102-3.017 3.223-4.769.078-1.134-.758-3.135-1.579-3.774-.725-.566-2.3-1.127-2.878-1.026-.446.079-.77-.157-.425-.31.331-.146.982-1.8.972-2.47-.025-1.536-1.264-3.2-2.768-3.715-.914-.313-2.373-.304-3.535.021l-.901.252-.731-1.65-.73-1.651-1.159.512-1.159.513.739 1.67.739 1.672-1.069.473-1.07.473-.739-1.67-.739-1.672-1.07.474c-.589.26-1.048.534-1.021.61Zm9.202 2.787c.901-.023 2.099.563 2.36 1.156.303.688.088 1.768-.481 2.421-.376.432-1.003.795-2.566 1.486l-2.068.915-.933-2.11-.934-2.11 1.967-.87c1.258-.557 2.215-.877 2.655-.889Zm2.488 6.423c1.178-.205 2.675.308 3.227 1.107.518.75.431 1.97-.215 3.001-.413.66-.645.814-2.714 1.792l-2.261 1.07-1.173-2.652-1.173-2.652 1.704-.754c.937-.415 2.109-.825 2.605-.912Z" clip-rule="evenodd"/><defs><linearGradient id="e" x1="87.535" x2="105.402" y1="102.829" y2="102.829" gradientUnits="userSpaceOnUse"><stop stop-color="#FF9600"/><stop offset="1" stop-color="#FFA900"/></linearGradient><linearGradient id="f" x1="118.972" x2="151.816" y1="105.365" y2="115.76" gradientUnits="userSpaceOnUse"><stop offset=".05" stop-color="#FF3F00"/><stop offset="1" stop-color="#FF6A03"/></linearGradient><linearGradient id="g" x1="87.156" x2="119.84" y1="62.221" y2="54.044" gradientUnits="userSpaceOnUse"><stop offset=".05" stop-color="#FF3F00"/><stop offset="1" stop-color="#FF6A03"/></linearGradient><linearGradient id="h" x1="86.35" x2="119.774" y1="60.57" y2="52.208" gradientUnits="userSpaceOnUse"><stop offset=".05" stop-color="#FF3F00"/><stop offset="1" stop-color="#FF6A03"/></linearGradient><linearGradient id="i" x1="85.797" x2="119.221" y1="58.36" y2="49.998" gradientUnits="userSpaceOnUse"><stop stop-color="#FFA900"/><stop offset="1" stop-color="#FF9600"/></linearGradient><linearGradient id="j" x1="91.49" x2="113.478" y1="56.829" y2="51.328" gradientUnits="userSpaceOnUse"><stop stop-color="#FF7C04"/><stop offset="1" stop-color="#D92000"/></linearGradient><linearGradient id="k" x1="57.968" x2="91.516" y1="42.346" y2="50.197" gradientUnits="userSpaceOnUse"><stop offset=".05" stop-color="#FF3F00"/><stop offset="1" stop-color="#FF6A03"/></linearGradient><linearGradient id="l" x1="64.462" x2="98.009" y1="53.024" y2="60.875" gradientUnits="userSpaceOnUse"><stop offset=".05" stop-color="#FF3F00"/><stop offset="1" stop-color="#FF6A03"/></linearGradient><linearGradient id="m" x1="86.337" x2="119.76" y1="53.953" y2="45.592" gradientUnits="userSpaceOnUse"><stop offset=".05" stop-color="#FF3F00"/><stop offset="1" stop-color="#FF6A03"/></linearGradient><linearGradient id="n" x1="91.476" x2="113.465" y1="50.212" y2="44.711" gradientUnits="userSpaceOnUse"><stop stop-color="#FF7C04"/><stop offset="1" stop-color="#D92000"/></linearGradient><linearGradient id="o" x1="90.459" x2="123.304" y1="40.19" y2="50.584" gradientUnits="userSpaceOnUse"><stop offset=".05" stop-color="#FF3F00"/><stop offset="1" stop-color="#FF6A03"/></linearGradient><clipPath id="a"><path fill="#fff" d="M0 0h186v154H0z"/></clipPath><clipPath id="c"><path fill="#fff" d="M43 18h110v107H43z"/></clipPath><filter id="b" width="178" height="134" x="4" y="10" color-interpolation-filters="sRGB" filterUnits="userSpaceOnUse"><feFlood flood-opacity="0" result="BackgroundImageFix"/><feGaussianBlur in="BackgroundImageFix" stdDeviation="4"/><feComposite in2="SourceAlpha" operator="in" result="effect1_backgroundBlur_1016_87"/><feBlend in="SourceGraphic" in2="effect1_backgroundBlur_1016_87" result="shape"/></filter><filter id="p" width="65.011" height="65.011" x="138.173" y="36.173" color-interpolation-filters="sRGB" filterUnits="userSpaceOnUse"><feFlood flood-opacity="0" result="BackgroundImageFix"/><feGaussianBlur in="BackgroundImageFix" stdDeviation="5"/><feComposite in2="SourceAlpha" operator="in" result="effect1_backgroundBlur_1016_87"/><feBlend in="SourceGraphic" in2="effect1_backgroundBlur_1016_87" result="shape"/></filter><radialGradient id="d" cx="0" cy="0" r="1" gradientTransform="matrix(45.9162 0 0 45.7946 92.05 98.132)" gradientUnits="userSpaceOnUse"><stop stop-color="#CE5411"/><stop offset="1" stop-color="#B42B00"/></radialGradient></defs></svg>