<svg xmlns="http://www.w3.org/2000/svg" width="37" height="35" fill="none"><path fill="url('#a')" d="M20.933.658a2.285 2.285 0 0 0-3.209 0l-3.209 3.178a2.232 2.232 0 0 0 0 3.178L25.105 17.5l-10.59 10.486a2.232 2.232 0 0 0 0 3.178l3.209 3.178a2.285 2.285 0 0 0 3.209 0l15.402-15.253c.886-.878.886-2.3 0-3.178L20.933.658Z"/><path fill="url('#b')" d="M5.047 6.508a2.285 2.285 0 0 0-3.209 0L.665 7.671a2.232 2.232 0 0 0 0 3.177l6.722 6.658-6.722 6.657a2.232 2.232 0 0 0 0 3.177l1.173 1.163a2.285 2.285 0 0 0 3.21 0l9.5-9.409a2.232 2.232 0 0 0 0-3.177l-9.5-9.409Z"/><defs><linearGradient id="a" x1="16.015" x2="31.964" y1="0" y2="27.066" gradientUnits="userSpaceOnUse"><stop stop-color="#FFBF48"/><stop offset="1" stop-color="#F7A60F"/></linearGradient><linearGradient id="b" x1="16.015" x2="31.964" y1="0" y2="27.066" gradientUnits="userSpaceOnUse"><stop stop-color="#FFBF48"/><stop offset="1" stop-color="#F7A60F"/></linearGradient></defs></svg>