<svg xmlns="http://www.w3.org/2000/svg" width="212" height="103" fill="none"><g filter="url('#a')"><rect width="212" height="103" fill="#D9D9D9" fill-opacity=".05" rx="17"/><rect width="211" height="102" x=".5" y=".5" stroke="url('#b')" rx="16.5"/></g><g clip-path="url('#c')"><path fill="#F7931A" d="M62.053 54.63c-2.105 8.036-10.66 12.927-19.106 10.923-8.443-2.004-13.583-10.143-11.476-18.178 2.104-8.037 10.658-12.928 19.103-10.924 8.446 2.003 13.585 10.143 11.48 18.18Z"/><path fill="#fff" d="M53.713 48.865c.314-1.996-1.284-3.07-3.468-3.785l.709-2.703-1.73-.41-.69 2.632c-.454-.108-.921-.21-1.385-.31l.694-2.65-1.729-.41-.708 2.702a60.925 60.925 0 0 1-1.105-.247l.002-.008-2.385-.567-.46 1.758s1.283.28 1.256.297c.7.166.827.608.806.957l-.807 3.08c.048.012.11.029.18.055l-.183-.043-1.131 4.315c-.086.202-.303.506-.793.39.017.025-1.257-.298-1.257-.298l-.859 1.884 2.25.534c.42.1.83.204 1.234.303l-.716 2.734 1.728.41.709-2.705c.472.122.93.234 1.378.34l-.706 2.693 1.73.41.715-2.73c2.95.532 5.168.318 6.102-2.22.752-2.044-.038-3.223-1.59-3.992 1.13-.248 1.982-.955 2.209-2.416Zm-3.952 5.273c-.535 2.043-4.151.939-5.324.662l.95-3.623c1.172.278 4.932.83 4.374 2.96Zm.535-5.303c-.488 1.86-3.498.915-4.475.683l.862-3.286c.976.232 4.12.664 3.613 2.603Zm26.902-3.758c1.278 0 2.383.218 3.311.646a6.623 6.623 0 0 1 2.32 1.747 7.226 7.226 0 0 1 1.354 2.582c.291.988.437 2.05.437 3.188a12.25 12.25 0 0 1-1.016 4.955 12.805 12.805 0 0 1-2.774 4.064c-1.171 1.151-2.555 2.06-4.15 2.73-1.593.671-3.324 1.007-5.184 1.007-.24 0-.663-.007-1.26-.018a19.336 19.336 0 0 1-2.052-.17 25.137 25.137 0 0 1-2.455-.458 12.83 12.83 0 0 1-2.455-.834l6.903-27.598 6.183-.912-2.47 9.794a9.948 9.948 0 0 1 1.594-.531 7.432 7.432 0 0 1 1.715-.192ZM72.012 61.33c.93 0 1.808-.218 2.632-.646a6.855 6.855 0 0 0 2.138-1.727 8.6 8.6 0 0 0 1.416-2.45c.344-.91.519-1.86.519-2.85 0-1.214-.214-2.161-.639-2.846-.425-.682-1.212-1.025-2.354-1.025-.375 0-.857.068-1.455.19a3.7 3.7 0 0 0-1.618.798l-2.632 10.401c.158.027.299.052.419.076.117.026.246.044.376.057.136.014.292.022.48.022h.718Zm19.02 4.138h-5.906L90.113 45.5h5.946l-5.027 19.967Zm2.874-22.4a3.79 3.79 0 0 1-2.235-.701c-.669-.465-1-1.181-1-2.146 0-.53.113-1.028.338-1.498.228-.469.526-.872.9-1.215.373-.34.805-.613 1.295-.817a4.13 4.13 0 0 1 1.579-.303 3.79 3.79 0 0 1 2.233.702c.663.47.996 1.185.996 2.145a3.4 3.4 0 0 1-.34 1.5 3.957 3.957 0 0 1-.896 1.216c-.37.341-.806.612-1.295.815a4.062 4.062 0 0 1-1.575.302Zm7.329-2.542 6.185-.912-1.519 5.886h6.625l-1.197 4.63h-6.584l-1.754 6.984a7.547 7.547 0 0 0-.279 1.631c-.029.508.039.944.198 1.311.159.368.444.652.858.852.412.204 1.002.307 1.775.307.637 0 1.258-.058 1.858-.172a13.727 13.727 0 0 0 1.813-.474l.44 4.33c-.798.278-1.662.517-2.593.719-.933.204-2.037.302-3.313.302-1.834 0-3.257-.259-4.27-.775-1.012-.52-1.727-1.23-2.155-2.129-.423-.896-.611-1.928-.559-3.092a19.12 19.12 0 0 1 .559-3.683l3.912-15.715Zm11.03 16.968c0-1.72.293-3.341.878-4.86a11.864 11.864 0 0 1 2.516-3.989c1.087-1.134 2.412-2.034 3.971-2.694 1.552-.656 3.29-.987 5.205-.987 1.198 0 2.269.108 3.211.324.946.218 1.801.5 2.575.853l-2.036 4.407a19.72 19.72 0 0 0-1.656-.55c-.571-.168-1.269-.249-2.094-.249-1.971 0-3.529.647-4.689 1.935-1.155 1.29-1.737 3.026-1.737 5.203 0 1.29.292 2.334.88 3.132.584.798 1.663 1.195 3.231 1.195a11.4 11.4 0 0 0 4.151-.796l.441 4.517a22.18 22.18 0 0 1-2.474.743c-.906.21-1.984.32-3.234.32-1.65 0-3.046-.23-4.189-.683-1.143-.46-2.087-1.069-2.831-1.841a6.86 6.86 0 0 1-1.617-2.717 10.644 10.644 0 0 1-.502-3.263Zm26.234 8.503c-1.409 0-2.633-.204-3.672-.609-1.035-.404-1.893-.972-2.571-1.708-.68-.732-1.188-1.6-1.537-2.6-.348-.999-.515-2.105-.515-3.318 0-1.521.256-3.042.775-4.558a12.706 12.706 0 0 1 2.296-4.099c1.006-1.215 2.247-2.209 3.709-2.984 1.459-.77 3.138-1.157 5.024-1.157 1.384 0 2.602.205 3.655.61 1.048.403 1.911.976 2.593 1.708a7.328 7.328 0 0 1 1.533 2.6c.347.998.519 2.108.519 3.321 0 1.517-.254 3.037-.756 4.558a12.953 12.953 0 0 1-2.235 4.1c-.983 1.213-2.213 2.206-3.69 2.978-1.475.771-3.185 1.158-5.128 1.158Zm2.952-16.247c-.875 0-1.649.242-2.312.72a6.304 6.304 0 0 0-1.674 1.823 8.76 8.76 0 0 0-1.021 2.41 9.922 9.922 0 0 0-.337 2.486c0 1.267.215 2.254.637 2.964.428.706 1.197 1.062 2.315 1.062.879 0 1.649-.24 2.315-.723a6.344 6.344 0 0 0 1.674-1.822 8.786 8.786 0 0 0 1.021-2.41c.223-.872.337-1.703.337-2.487 0-1.263-.214-2.252-.64-2.962-.426-.706-1.198-1.061-2.315-1.061Zm15.292 15.718h-5.911l4.987-19.967h5.949l-5.025 19.967Zm2.869-22.4a3.783 3.783 0 0 1-2.233-.701c-.665-.465-.999-1.181-.999-2.146 0-.53.115-1.028.34-1.498.225-.469.525-.872.899-1.215.371-.34.807-.613 1.296-.817a4.104 4.104 0 0 1 1.574-.303c.825 0 1.571.234 2.236.702.664.47 1 1.185 1 2.145a3.45 3.45 0 0 1-.343 1.5 3.94 3.94 0 0 1-.895 1.216 4.4 4.4 0 0 1-1.296.815 4.07 4.07 0 0 1-1.579.302Zm6.412 3.34c.449-.124.949-.274 1.494-.437a23.089 23.089 0 0 1 4.111-.796 26.86 26.86 0 0 1 2.85-.135c3.115 0 5.262.863 6.447 2.584 1.185 1.72 1.39 4.076.621 7.06l-2.716 10.782h-5.945l2.633-10.554c.161-.66.287-1.297.38-1.919.094-.617.088-1.16-.021-1.631a1.946 1.946 0 0 0-.736-1.14c-.39-.29-.979-.437-1.778-.437-.77 0-1.553.08-2.352.231l-3.871 15.45h-5.947l4.83-19.057Z"/></g><defs><linearGradient id="b" x1="106" x2="106" y1="0" y2="103" gradientUnits="userSpaceOnUse"><stop stop-color="#BCB046"/><stop offset=".469" stop-color="#1B2E8E"/><stop offset="1" stop-color="#CC29E7"/></linearGradient><clipPath id="c"><path fill="#fff" d="M31 36h151v30H31z"/></clipPath><filter id="a" width="244" height="135" x="-16" y="-16" color-interpolation-filters="sRGB" filterUnits="userSpaceOnUse"><feFlood flood-opacity="0" result="BackgroundImageFix"/><feGaussianBlur in="BackgroundImageFix" stdDeviation="8"/><feComposite in2="SourceAlpha" operator="in" result="effect1_backgroundBlur_248_78"/><feBlend in="SourceGraphic" in2="effect1_backgroundBlur_248_78" result="shape"/></filter></defs></svg>