<svg xmlns="http://www.w3.org/2000/svg" width="212" height="103" fill="none"><g filter="url('#a')"><rect width="212" height="103" fill="#D9D9D9" fill-opacity=".05" rx="17"/><rect width="211" height="102" x=".5" y=".5" stroke="url('#b')" rx="16.5"/></g><g clip-path="url('#c')"><path fill="#fff" d="M80.5 82.862v-4.181c0-1.6-.961-2.647-2.61-2.647-.825 0-1.722.276-2.338 1.186-.48-.764-1.17-1.186-2.202-1.186-.689 0-1.377.211-1.922.974v-.836h-1.44v6.69h1.44v-3.694c0-1.185.617-1.746 1.578-1.746.96 0 1.44.626 1.44 1.746v3.694h1.442v-3.694c0-1.185.688-1.746 1.577-1.746.96 0 1.441.626 1.441 1.746v3.694H80.5Zm21.377-6.69h-2.338v-2.021h-1.441v2.021h-1.305v1.324h1.305v3.068c0 1.535.616 2.436 2.265 2.436.617 0 1.306-.211 1.786-.487l-.416-1.259c-.417.276-.897.35-1.241.35-.689 0-.961-.423-.961-1.113v-2.995h2.338v-1.324h.008Zm12.233-.146c-.824 0-1.377.422-1.721.974v-.836h-1.441v6.69h1.441v-3.767c0-1.112.48-1.746 1.377-1.746.272 0 .617.073.897.138l.416-1.396c-.288-.057-.696-.057-.969-.057Zm-18.486.698c-.689-.487-1.65-.698-2.682-.698-1.65 0-2.747.836-2.747 2.16 0 1.112.825 1.745 2.266 1.948l.689.073c.752.138 1.169.35 1.169.698 0 .487-.553.837-1.514.837-.96 0-1.72-.35-2.201-.699l-.689 1.113c.753.56 1.786.836 2.818.836 1.922 0 3.027-.91 3.027-2.16 0-1.185-.897-1.81-2.266-2.021l-.689-.073c-.616-.073-1.096-.211-1.096-.625 0-.487.48-.763 1.24-.763.825 0 1.65.349 2.066.56l.609-1.186Zm38.342-.698c-.824 0-1.377.422-1.721.974v-.836h-1.441v6.69h1.441v-3.767c0-1.112.48-1.746 1.377-1.746.272 0 .617.073.897.138l.416-1.38c-.28-.073-.688-.073-.969-.073Zm-18.414 3.491c0 2.022 1.377 3.483 3.506 3.483.961 0 1.65-.211 2.338-.763l-.688-1.185c-.553.422-1.097.625-1.722.625-1.169 0-1.993-.837-1.993-2.16 0-1.258.824-2.094 1.993-2.16.617 0 1.169.212 1.722.626l.688-1.186c-.688-.56-1.377-.763-2.338-.763-2.129-.008-3.506 1.462-3.506 3.483Zm13.33 0v-3.345h-1.441v.837c-.48-.626-1.169-.975-2.066-.975-1.857 0-3.298 1.462-3.298 3.483 0 2.022 1.441 3.483 3.298 3.483.961 0 1.65-.35 2.066-.974v.836h1.441v-3.345Zm-5.292 0c0-1.185.753-2.16 1.994-2.16 1.169 0 1.993.91 1.993 2.16 0 1.185-.824 2.16-1.993 2.16-1.233-.073-1.994-.983-1.994-2.16Zm-17.246-3.49c-1.921 0-3.298 1.395-3.298 3.482 0 2.095 1.377 3.483 3.37 3.483.961 0 1.922-.276 2.682-.91l-.688-1.047c-.553.422-1.241.699-1.922.699-.896 0-1.785-.423-1.993-1.6h4.876v-.56c.064-2.151-1.177-3.548-3.027-3.548Zm0 1.257c.897 0 1.513.56 1.65 1.6h-3.435c.136-.901.752-1.6 1.785-1.6Zm35.805 2.233v-5.991h-1.441v3.483c-.481-.626-1.169-.975-2.066-.975-1.857 0-3.299 1.462-3.299 3.483 0 2.022 1.442 3.483 3.299 3.483.961 0 1.649-.35 2.066-.974v.836h1.441v-3.345Zm-5.292 0c0-1.185.752-2.16 1.993-2.16 1.169 0 1.994.91 1.994 2.16 0 1.185-.825 2.16-1.994 2.16-1.241-.073-1.993-.983-1.993-2.16Zm-48.247 0v-3.345h-1.44v.837c-.48-.626-1.169-.975-2.066-.975-1.857 0-3.298 1.462-3.298 3.483 0 2.022 1.44 3.483 3.298 3.483.961 0 1.65-.35 2.066-.974v.836h1.441v-3.345Zm-5.356 0c0-1.185.752-2.16 1.993-2.16 1.17 0 1.994.91 1.994 2.16 0 1.185-.825 2.16-1.994 2.16-1.24-.073-1.993-.983-1.993-2.16Z"/><path fill="#FF5A00" d="M116.793 25.366h-21.65v39.44h21.65v-39.44Z"/><path fill="#EB001B" d="M96.585 45.086A25.285 25.285 0 0 1 106 25.366C101.805 22.021 96.512 20 90.74 20 77.065 20 66 31.22 66 45.086c0 13.867 11.065 25.087 24.74 25.087 5.772 0 11.065-2.022 15.26-5.367-5.709-4.53-9.415-11.707-9.415-19.72Z"/><path fill="#F79E1B" d="M146 45.086c0 13.867-11.065 25.087-24.74 25.087-5.772 0-11.065-2.022-15.26-5.367 5.773-4.603 9.416-11.707 9.416-19.72A25.285 25.285 0 0 0 106 25.366c4.187-3.345 9.48-5.366 15.252-5.366C134.935 20 146 31.293 146 45.086Z"/></g><defs><linearGradient id="b" x1="106" x2="106" y1="0" y2="103" gradientUnits="userSpaceOnUse"><stop stop-color="#BCB046"/><stop offset=".469" stop-color="#1B2E8E"/><stop offset="1" stop-color="#CC29E7"/></linearGradient><clipPath id="c"><path fill="#fff" d="M66 20h80v63H66z"/></clipPath><filter id="a" width="244" height="135" x="-16" y="-16" color-interpolation-filters="sRGB" filterUnits="userSpaceOnUse"><feFlood flood-opacity="0" result="BackgroundImageFix"/><feGaussianBlur in="BackgroundImageFix" stdDeviation="8"/><feComposite in2="SourceAlpha" operator="in" result="effect1_backgroundBlur_248_70"/><feBlend in="SourceGraphic" in2="effect1_backgroundBlur_248_70" result="shape"/></filter></defs></svg>