<svg xmlns="http://www.w3.org/2000/svg" width="212" height="103" fill="none"><g filter="url('#a')"><rect width="212" height="103" fill="#D9D9D9" fill-opacity=".05" rx="17"/><rect width="211" height="102" x=".5" y=".5" stroke="url('#b')" rx="16.5"/></g><g clip-path="url('#c')"><path fill="#fff" d="M94.767 71.409H84.155l6.637-39.69h10.611l-6.636 39.69Zm38.469-38.719c-2.093-.803-5.413-1.69-9.518-1.69-10.48 0-17.86 5.404-17.905 13.13-.087 5.701 5.284 8.867 9.301 10.768 4.105 1.942 5.501 3.21 5.501 4.941-.042 2.66-3.318 3.885-6.373 3.885-4.237 0-6.507-.632-9.957-2.111l-1.397-.635-1.485 8.91c2.489 1.096 7.074 2.07 11.835 2.112 11.135 0 18.384-5.32 18.47-13.554.042-4.518-2.794-7.98-8.908-10.81-3.711-1.815-5.984-3.04-5.984-4.898.043-1.689 1.922-3.419 6.112-3.419 3.45-.085 5.984.717 7.905 1.52l.959.421 1.444-8.57Zm14.104 24.658c.874-2.28 4.237-11.105 4.237-11.105-.044.085.872-2.322 1.396-3.8l.741 3.42s2.01 9.5 2.446 11.485h-8.82Zm13.099-25.629h-8.208c-2.532 0-4.455.718-5.547 3.293l-15.762 36.396h11.134l2.227-5.954h13.625c.305 1.394 1.266 5.954 1.266 5.954H169l-8.561-39.689Zm-85.148.001L64.9 58.783l-1.136-5.49c-1.921-6.333-7.947-13.214-14.672-16.636l9.52 34.708h11.221l16.68-39.647h-11.22Z"/><path fill="#FAA61A" d="M55.248 31.72H38.175l-.175.8c13.318 3.294 22.139 11.233 25.763 20.775l-3.712-18.24c-.61-2.535-2.489-3.253-4.803-3.337Z"/></g><defs><linearGradient id="b" x1="106" x2="106" y1="0" y2="103" gradientUnits="userSpaceOnUse"><stop stop-color="#BCB046"/><stop offset=".469" stop-color="#1B2E8E"/><stop offset="1" stop-color="#CC29E7"/></linearGradient><clipPath id="c"><path fill="#fff" d="M38 31h131v41H38z"/></clipPath><filter id="a" width="244" height="135" x="-16" y="-16" color-interpolation-filters="sRGB" filterUnits="userSpaceOnUse"><feFlood flood-opacity="0" result="BackgroundImageFix"/><feGaussianBlur in="BackgroundImageFix" stdDeviation="8"/><feComposite in2="SourceAlpha" operator="in" result="effect1_backgroundBlur_248_61"/><feBlend in="SourceGraphic" in2="effect1_backgroundBlur_248_61" result="shape"/></filter></defs></svg>