<svg xmlns="http://www.w3.org/2000/svg" aria-hidden="true" style="position:absolute;width:0;height:0;overflow:hidden"><defs><symbol id="icon-apple-pay" viewBox="0 0 77 32"><path d="M14.102 4.126c-.905 1.081-2.352 1.933-3.799 1.812-.181-1.461.528-3.014 1.357-3.973C12.565.854 14.147.062 15.429.001c.151 1.522-.437 3.014-1.327 4.126zm1.311 2.1c-2.095-.122-3.889 1.203-4.884 1.203-1.01 0-2.533-1.142-4.191-1.111-2.156.03-4.161 1.264-5.261 3.227-2.261 3.928-.588 9.743 1.598 12.94 1.07 1.583 2.352 3.319 4.04 3.258 1.598-.061 2.231-1.05 4.161-1.05 1.945 0 2.502 1.05 4.191 1.02 1.749-.03 2.849-1.583 3.92-3.166 1.221-1.796 1.719-3.547 1.749-3.638-.03-.03-3.377-1.324-3.407-5.222-.03-3.258 2.638-4.811 2.759-4.902-1.507-2.253-3.859-2.497-4.673-2.558zm12.105-4.414v23.734h3.648v-8.114h5.05c4.613 0 7.854-3.197 7.854-7.825s-3.181-7.795-7.734-7.795h-8.819zm3.649 3.105h4.206c3.166 0 4.975 1.705 4.975 4.704s-1.809 4.719-4.99 4.719h-4.191V4.917zm19.567 20.811c2.291 0 4.417-1.172 5.382-3.029h.075v2.847h3.377V13.732c0-3.425-2.714-5.633-6.889-5.633-3.874 0-6.739 2.238-6.844 5.313h3.287c.271-1.461 1.613-2.421 3.452-2.421 2.231 0 3.482 1.05 3.482 2.984v1.309l-4.553.274c-4.236.259-6.527 2.01-6.527 5.054 0 3.075 2.367 5.115 5.759 5.115zm.98-2.817c-1.945 0-3.181-.944-3.181-2.39 0-1.492 1.191-2.36 3.467-2.497l4.055-.259v1.34c0 2.223-1.869 3.806-4.342 3.806zM64.076 32c3.558 0 5.231-1.37 6.693-5.526l6.407-18.146h-3.708l-4.296 14.021h-.075L64.801 8.328h-3.814l6.181 17.279-.332 1.051c-.558 1.781-1.462 2.466-3.075 2.466-.286 0-.844-.03-1.07-.061v2.847c.211.061 1.116.091 1.387.091z"/></symbol><symbol id="icon-binance" viewBox="0 0 32 32"><path d="M19.121 15.554h.001l-3.567-3.567-3.569 3.569.005.005 3.564 3.565 3.569-3.569-.003-.002z"/><path d="m15.556 7.031-6.042 6.042-3.515-3.516L15.556 0l9.56 9.56-3.516 3.516-6.045-6.045zm-12.04 5.008L0 15.555l3.515 3.515 3.516-3.516-3.515-3.515zm5.998 5.999 6.042 6.042 6.045-6.045 3.517 3.514-.002.002-9.56 9.56-9.562-9.562 3.52-3.51zm18.082-5.997-3.516 3.516 3.516 3.515 3.515-3.516-3.515-3.515z"/></symbol><symbol id="icon-bitcoin" viewBox="0 0 25 32"><path d="M24.342 13.034c.493-3.181-2.016-4.891-5.446-6.031l1.113-4.309-2.717-.654-1.083 4.195c-.714-.172-1.448-.334-2.177-.495l1.091-4.223-2.715-.654-1.114 4.307a87.544 87.544 0 0 1-1.735-.394l.003-.013-3.747-.903-.723 2.801s2.016.446 1.973.474c1.1.265 1.299.968 1.266 1.525l-1.268 4.908c.076.019.174.046.282.087-.091-.022-.187-.046-.287-.069l-1.777 6.876c-.135.323-.476.807-1.245.623.027.038-1.975-.476-1.975-.476L.712 23.611l3.536.851c.658.159 1.302.326 1.937.483l-1.124 4.358 2.714.654 1.114-4.312c.741.194 1.461.373 2.165.542l-1.11 4.291 2.717.654 1.124-4.35c4.633.846 8.117.505 9.583-3.54 1.182-3.257-.059-5.136-2.496-6.361 1.775-.395 3.112-1.522 3.469-3.851zm-6.207 8.403c-.84 3.257-6.52 1.496-8.362 1.055l1.492-5.773c1.842.444 7.748 1.322 6.87 4.719zm.84-8.45c-.766 2.963-5.494 1.457-7.028 1.088L13.3 8.839c1.534.369 6.473 1.058 5.675 4.148z"/></symbol><symbol id="icon-dogcoin" viewBox="0 0 32 32"><path fill="#48494b" d="M16 0C7.163 0 0 7.163 0 16s7.163 16 16 16 16-7.163 16-16S24.837 0 16 0zm.628 24.642h-5.794v-7.704H8.792v-1.887h2.042V7.347h4.973c1.176 0 8.97-.244 8.97 8.792 0 9.185-8.148 8.503-8.148 8.503zm-.244-14.098h-2.286v4.507h3.597v1.887h-3.597v4.507h2.398c.617 0 5.059.07 5.052-5.244s-4.309-5.658-5.164-5.658z" style="fill:var(--color1, #48494b)"/></symbol><symbol id="icon-ethereum" viewBox="0 0 20 32"><path fill="#1b1c20" d="m9.997.901-.207.702v20.372l.207.206 9.456-5.59L9.997.9z" style="fill:var(--color2, #1b1c20)"/><path fill="#2a2b30" d="M9.997.901.54 16.592l9.457 5.59V.901z" style="fill:var(--color3, #2a2b30)"/><path fill="#1b1c20" d="m9.997 23.972-.117.142v7.257l.117.34 9.462-13.326-9.462 5.587z" style="fill:var(--color2, #1b1c20)"/><path fill="#2a2b30" d="M9.997 31.711v-7.739L.54 18.385l9.457 13.326z" style="fill:var(--color3, #2a2b30)"/><path fill="#141414" d="m9.997 22.182 9.456-5.59-9.456-4.298v9.888z" style="fill:var(--color4, #141414)"/><path fill="#393939" d="m.541 16.592 9.457 5.59v-9.888L.541 16.592z" style="fill:var(--color5, #393939)"/></symbol><symbol id="icon-logo" viewBox="0 0 137 32"><path fill="#48494b" d="M33.233 26.531c-.009-.086-.023-.154-.023-.222V10.322c0-.324 0-.324.317-.323 2.055.004 4.11-.008 6.164.019.88.011 1.754.135 2.598.408.539.175 1.053.407 1.513.743.548.395.973.936 1.225 1.563.12.301.209.613.266.932.091.493.094.989.057 1.483-.02.266-.102.53-.16.794a2.932 2.932 0 0 1-.319.783 3.345 3.345 0 0 1-.944 1.104c-.025.015-.05.031-.074.048-.075.07-.064.13.034.172.715.311 1.228.833 1.579 1.521.242.474.386.991.423 1.522.047.613.005 1.23-.124 1.832-.203.936-.63 1.748-1.364 2.376a4.16 4.16 0 0 1-1.497.816 7.798 7.798 0 0 1-1.026.263 9.21 9.21 0 0 1-1.354.14c-1.5.019-2.999.012-4.499.013h-2.569l-.223.001zm3.905-5.121v1.825c.004.083.049.131.13.142.041.004.083.006.124.004.755 0 1.51.003 2.265-.001.313-.002.624-.023.929-.103.569-.148.945-.497 1.092-1.066a2.956 2.956 0 0 0-.085-1.826c-.163-.43-.488-.687-.908-.821a2.803 2.803 0 0 0-.872-.121c-.814.006-1.628.002-2.442.002-.215 0-.234.021-.234.232l.001 1.734v.001zm0-6.386v1.595c0 .191.031.224.211.224.656 0 1.311.002 1.966-.005.344-.004.682-.06.999-.203.292-.131.526-.327.685-.613.142-.255.199-.528.208-.814.013-.41-.019-.81-.207-1.189-.169-.339-.45-.538-.786-.666a2.15 2.15 0 0 0-.746-.131l-2.125-.023a.444.444 0 0 0-.089.006c-.065.012-.106.049-.112.118a2.223 2.223 0 0 0-.004.142l.001 1.559v.001zM124.671 18.492v-7.71c0-.193.021-.216.209-.22H137.068c.071 0 .142-.003.213.004.107.01.135.046.119.15-.071.467-.145.933-.215 1.4a90.75 90.75 0 0 0-.132.911c-.04.274-.078.549-.12.823-.018.115-.059.149-.176.161-.053.005-.106.002-.159.002H128.874c-.172.005-.204.036-.203.213.005.792.011 1.583.018 2.375.002.2.029.221.228.221h7.121c.036 0 .071.002.106.005.071.006.108.046.107.116-.002.065-.011.129-.017.194l-.066.634-.174 1.727c-.014.141-.019.283-.031.424-.012.138-.036.16-.174.171-.041.003-.082.002-.124.002l-6.767-.003c-.171 0-.202.032-.204.229l-.015 2.127c0 .112-.003.224-.002.337 0 .194.023.217.211.218h8.114l.265-.002c.158 0 .195.031.19.182a7.952 7.952 0 0 1-.035.512c-.02.212-.045.423-.068.634l-.161 1.514c-.015.147-.026.294-.04.441-.012.133-.025.147-.162.155-.047.003-.094.002-.142.002h-11.887c-.35 0-.29-.035-.29-.291v-7.657l-.001-.001zM113.103 17.402c.105-.182.216-.369.322-.559.201-.36.401-.719.597-1.083s.383-.73.581-1.091c.33-.605.666-1.207.997-1.81.419-.764.837-1.529 1.254-2.295.056-.103.124-.202.174-.308.053-.112.136-.154.255-.148.071.004.142.001.213.001l3.49.001c.078 0 .178-.04.231.044.053.087-.031.151-.071.22-.511.861-1.02 1.724-1.534 2.583-.544.91-1.096 1.815-1.64 2.726-.522.875-1.036 1.755-1.557 2.631-.458.77-.918 1.539-1.38 2.306-.296.495-.597.987-.891 1.483-.321.542-.641 1.085-.953 1.632-.117.204-.166.219-.297-.006a415.442 415.442 0 0 0-1.74-2.954c-.252-.426-.512-.846-.763-1.272-.483-.822-.962-1.647-1.444-2.47a7.93 7.93 0 0 0-.204-.331c-.023-.035-.06-.061-.113-.113-.016.071-.031.108-.031.145-.003.107 0 .213 0 .319v9.076c0 .041.001.083-.002.124-.007.089-.055.141-.146.147-.029.002-.059.001-.088.001h-3.384c-.187 0-.213-.026-.216-.215V10.374c0-.036-.002-.071.001-.107.011-.12.044-.151.167-.157.03-.002.059 0 .089 0 1.252 0 2.504.004 3.756-.004.181-.001.279.064.361.215.366.679.741 1.352 1.11 2.03.501.921.998 1.845 1.501 2.765.399.728.805 1.453 1.208 2.179.031.054.052.123.151.107zM83.867 21.994v2.73c0 .224-.007.449-.008.673 0 .114-.049.193-.156.231-.456.162-.908.333-1.369.481-.348.111-.703.199-1.06.281-.27.061-.545.096-.818.142-.04.007-.083.003-.124.012-.67.142-1.352.14-2.028.13-.551-.007-1.111.005-1.657-.126-.251-.06-.514-.074-.764-.139-.549-.142-1.086-.319-1.591-.582a5.802 5.802 0 0 1-2.634-2.78c-.316-.693-.497-1.421-.605-2.172-.223-1.559-.208-3.121-.054-4.685.052-.541.146-1.077.283-1.603a6.398 6.398 0 0 1 1.259-2.446c.408-.497.898-.92 1.448-1.252a7.11 7.11 0 0 1 1.989-.815c.379-.095.762-.153 1.147-.213.824-.127 1.651-.117 2.473-.056a12.56 12.56 0 0 1 4.028.96c.096.04.124.098.088.199-.1.278-.204.553-.306.829-.091.243-.18.486-.272.728-.081.214-.167.427-.249.641-.053.137-.111.273-.151.414-.056.203-.154.227-.319.131-.19-.111-.404-.184-.612-.263-.517-.195-1.059-.289-1.606-.333a15.85 15.85 0 0 0-1.344-.043 6.87 6.87 0 0 0-.917.073c-.398.055-.773.195-1.142.359-.519.231-.868.632-1.141 1.111-.28.494-.431 1.034-.517 1.591-.146.971-.19 1.954-.13 2.934.026.448.068.896.132 1.339.076.523.232 1.025.52 1.476.153.24.341.447.555.637.489.434 1.077.614 1.705.702.697.097 1.39.035 2.083-.051a1.11 1.11 0 0 0 .139-.03c.072-.018.108-.068.114-.14.004-.047.003-.094.003-.142l-.002-4.272v-.053c.003-.202.022-.222.225-.222h3.154c.187 0 .216.026.217.213.003.307 0 .615 0 .922v2.481l.013.001zM94.017 16.097c-.014.083-.015.148-.036.206-.104.294-.215.586-.321.878-.18.494-.359.987-.536 1.481-.086.239-.17.478-.254.717-.014.042-.022.086-.039.151.084.006.146.015.209.015l2.357-.006h.053c.117-.008.145-.046.106-.16-.056-.161-.116-.321-.175-.482-.119-.327-.234-.655-.356-.981-.195-.519-.396-1.035-.591-1.553-.153-.408-.297-.818-.45-1.226-.267-.712-.538-1.422-.805-2.133-.164-.436-.322-.874-.487-1.309-.151-.402-.308-.801-.46-1.203a2.7 2.7 0 0 1-.079-.235c-.022-.081.008-.124.091-.134a.853.853 0 0 1 .124-.002h3.401c.209 0 .238.024.313.214.19.482.386.961.575 1.443.153.388.299.781.452 1.168.202.51.41 1.018.613 1.527.164.411.32.824.484 1.234.186.464.381.925.565 1.389.105.262.194.531.295.795.12.313.246.624.369.935l.448 1.134c.174.439.35.877.523 1.316.162.411.321.823.484 1.233.154.388.314.774.469 1.162.205.515.408 1.031.612 1.546l.373.936a.537.537 0 0 1 .036.118c.01.078-.025.125-.106.129-.036.002-.071.001-.107.001-1.281 0-2.562-.002-3.844.003-.136 0-.22-.037-.272-.169-.141-.363-.29-.722-.437-1.083-.196-.479-.395-.958-.591-1.44-.084-.207-.162-.416-.242-.625-.068-.177-.117-.211-.316-.21-1.524.005-3.048.008-4.571.011-.127 0-.201.047-.242.16-.061.166-.12.333-.18.5l-.428 1.197c-.171.478-.344.955-.512 1.434-.076.216-.099.236-.33.235l-3.737-.012c-.253 0-.277-.042-.18-.284.186-.465.366-.933.552-1.399.151-.377.313-.749.462-1.126.146-.373.279-.75.421-1.124.106-.281.217-.56.329-.838.12-.3.245-.599.365-.899.245-.613.49-1.226.733-1.84.162-.411.319-.824.484-1.234.116-.289.242-.574.36-.863.078-.19.158-.381.223-.576.036-.105.098-.139.197-.136h3.401c.061 0 .124.008.206.013zM60.072 22.6c.034.073.071.139.095.209.087.25.167.503.252.754.111.323.225.645.337.967l.272.784c.023.067.053.131.076.198.05.14.036.193-.101.255-.268.122-.538.242-.815.343-.293.106-.593.199-.893.284-.209.059-.424.097-.638.14-.271.053-.543.102-.815.152-.075.014-.151.035-.227.038-.666.031-1.329.123-1.999.077-.365-.025-.731-.038-1.094-.082-.297-.037-.591-.107-.883-.174-.315-.072-.634-.137-.939-.243a9.157 9.157 0 0 1-1.042-.44 5.8 5.8 0 0 1-1.678-1.245c-.79-.844-1.273-1.842-1.525-2.965-.246-1.097-.307-2.208-.309-3.326a18.86 18.86 0 0 1 .165-2.58 8.734 8.734 0 0 1 .412-1.719 5.88 5.88 0 0 1 .762-1.451 5.848 5.848 0 0 1 1.32-1.367 6.253 6.253 0 0 1 1.798-.927 13.08 13.08 0 0 1 1.35-.357 7.169 7.169 0 0 1 1.14-.137c.589-.023 1.18-.014 1.77-.01.532.004 1.056.094 1.58.18.653.106 1.295.268 1.92.483.19.065.375.142.561.217.124.051.144.09.106.22a5.923 5.923 0 0 1-.137.401c-.13.353-.261.706-.394 1.058-.117.308-.238.615-.356.923-.04.105-.082.209-.117.315-.028.085-.084.107-.165.088a.474.474 0 0 1-.103-.027c-.312-.143-.643-.223-.973-.308a7.6 7.6 0 0 0-1.697-.241c-.596-.015-1.193-.034-1.785.062-.338.055-.671.13-.984.276-.148.069-.305.124-.445.207a2.18 2.18 0 0 0-.375.287c-.425.403-.694.9-.865 1.458a7.493 7.493 0 0 0-.307 1.881c-.023.543-.067 1.085-.033 1.629.021.33.026.662.059.99.061.6.163 1.193.429 1.743a2.894 2.894 0 0 0 1.577 1.466c.585.237 1.194.327 1.816.348a8.73 8.73 0 0 0 2.078-.172c.387-.08.764-.203 1.124-.366l.594-.269a.682.682 0 0 1 .098-.028zM121.54 21.394v4.82c-.007.15-.044.188-.193.189-.278.002-.555 0-.833 0h-2.567c-.208 0-.234-.025-.234-.234v-9.55l.002-.107c.001-.078.043-.119.119-.127a.938.938 0 0 1 .106-.002l3.364.001c.223 0 .236.012.236.245l.001 4.766zM68.295 24.752v1.488c0 .188-.012.201-.201.201h-3.009c-.191 0-.203-.014-.203-.199v-3.011c0-.194.027-.221.228-.221h2.974c.185 0 .211.027.211.22l.001 1.523zM8.51 16.304c.02-.728.548-1.309 1.299-1.316.74-.008 1.308.563 1.317 1.312.009.702-.594 1.296-1.304 1.289a1.309 1.309 0 0 1-1.312-1.285z" style="fill:var(--color1, #48494b)"/><path fill="#48494b" d="M12.271 31.771a3.41 3.41 0 0 1-1.705-.457l-8.861-5.125A3.413 3.413 0 0 1 0 23.233V.491A.583.583 0 0 1 .311.089C.742.031 1.177.002 1.612 0c1.557 0 2.765.424 3.593 1.261.833.843 1.256 2.08 1.256 3.679v2.339l4.107-2.376a3.4 3.4 0 0 1 3.41 0l8.861 5.125a3.428 3.428 0 0 1 1.706 2.956v10.25a3.426 3.426 0 0 1-1.705 2.956l-8.861 5.125a3.413 3.413 0 0 1-1.705.454zm.583-21.575c-4.39 0-7.949 3.564-7.949 7.961s3.559 7.961 7.949 7.962c2.01 0 3.946-.763 5.417-2.135a.343.343 0 0 0 .089-.219c.001-.029-.003-.058-.014-.085s-.026-.052-.046-.073l-5.254-5.257a.256.256 0 0 1-.083-.269.248.248 0 0 1 .084-.126l.354-.37c1.279-1.33 4.678-4.864 4.79-4.975.025-.023.045-.05.058-.081s.02-.064.02-.098a.259.259 0 0 0-.079-.175 7.92 7.92 0 0 0-5.336-2.06z" style="fill:var(--color1, #48494b)"/></symbol><symbol id="icon-mastercard" viewBox="0 0 50 32"><path fill="#212225" d="M31.801 3.318H18.247v24.388h13.554V3.318z" style="fill:var(--color6, #212225)"/><path fill="#1a1b1d" d="M19.149 15.512c0-4.955 2.326-9.353 5.895-12.194A15.394 15.394 0 0 0 15.49 0C6.928 0 .001 6.938.001 15.512S6.929 31.024 15.49 31.024c3.614 0 6.928-1.25 9.554-3.318-3.574-2.801-5.895-7.239-5.895-12.194z" style="fill:var(--color7, #1a1b1d)"/><path fill="#2a2b30" d="M50.087 15.512c0 8.574-6.928 15.512-15.489 15.512-3.614 0-6.928-1.25-9.554-3.318 3.614-2.846 5.895-7.239 5.895-12.194s-2.326-9.353-5.895-12.194A15.369 15.369 0 0 1 34.593 0c8.567 0 15.494 6.983 15.494 15.512z" style="fill:var(--color3, #2a2b30)"/></symbol><symbol id="icon-tether" viewBox="0 0 35 32"><path d="M20.898 17.499c-.189.014-1.163.072-3.336.072a73.72 73.72 0 0 1-3.386-.072c-6.68-.294-11.665-1.457-11.665-2.849s4.986-2.553 11.665-2.852v4.543c.437.031 1.688.105 3.416.105 2.074 0 3.113-.086 3.3-.104v-4.541c6.666.297 11.64 1.46 11.64 2.849s-4.973 2.552-11.64 2.847l.006.002zm0-6.167V7.267H30.2V1.068H4.874v6.199h9.301v4.063C6.615 11.677.93 13.175.93 14.969s5.685 3.29 13.245 3.639v13.026h6.722V18.603c7.542-.347 13.218-1.843 13.218-3.636s-5.671-3.289-13.218-3.638l.002.002z"/></symbol><symbol id="icon-usd" viewBox="0 0 33 32"><path d="M22.386 18.776c0-3.083-1.85-4.14-5.55-4.581-2.643-.352-3.171-1.057-3.171-2.29s.881-2.026 2.643-2.026c1.586 0 2.467.529 2.907 1.85.088.264.352.44.617.44h1.409a.603.603 0 0 0 .617-.617v-.088a4.4 4.4 0 0 0-3.964-3.612V5.738c0-.352-.264-.617-.705-.705h-1.321c-.352 0-.617.264-.705.705v2.026c-2.643.352-4.317 2.114-4.317 4.317 0 2.907 1.762 4.052 5.462 4.493 2.467.44 3.26.969 3.26 2.378s-1.233 2.379-2.907 2.379c-2.291 0-3.083-.969-3.348-2.291-.088-.352-.352-.529-.616-.529h-1.498a.603.603 0 0 0-.617.617v.088c.352 2.202 1.762 3.788 4.669 4.229v2.114c0 .352.264.617.705.705h1.321c.352 0 .617-.264.705-.705v-2.114c2.643-.441 4.405-2.291 4.405-4.669z"/><path d="M4.238 11.112c-2.555 6.784.969 14.448 7.84 16.914.264.176.529.529.529.793v1.233c0 .176 0 .264-.088.352-.088.352-.44.529-.793.352A15.85 15.85 0 0 1 1.419 20.449C-1.224 12.08 3.357 3.182 11.726.539c.088-.088.264-.088.352-.088.352.088.529.352.529.705v1.233c0 .441-.176.705-.529.881-3.612 1.321-6.519 4.14-7.84 7.84zM20.624.893c.088-.352.44-.529.793-.352 4.845 1.586 8.721 5.374 10.307 10.395 2.643 8.369-1.938 17.267-10.307 19.91-.088.088-.264.088-.352.088-.352-.088-.529-.352-.529-.705v-1.233c0-.441.176-.705.529-.881 3.612-1.322 6.519-4.14 7.84-7.84 2.555-6.783-.969-14.448-7.84-16.914-.264-.176-.529-.529-.529-.881V1.247c0-.176 0-.264.088-.352z"/></symbol><symbol id="icon-visa" viewBox="0 0 99 32"><path d="M42.755 31.538h-7.993L39.761.561h7.992l-4.999 30.977zM71.73 1.319C70.153.692 67.653 0 64.561 0 56.668 0 51.11 4.218 51.076 10.248c-.066 4.449 3.979 6.92 7.005 8.404 3.092 1.516 4.143 2.505 4.143 3.857-.031 2.075-2.499 3.032-4.8 3.032-3.191 0-4.901-.493-7.499-1.648l-1.053-.495-1.118 6.954c1.875.856 5.328 1.615 8.914 1.649 8.386 0 13.846-4.153 13.911-10.579.032-3.526-2.104-6.228-6.709-8.436-2.795-1.417-4.507-2.373-4.507-3.823.033-1.318 1.448-2.669 4.604-2.669 2.598-.066 4.507.56 5.954 1.186l.723.329 1.087-6.689zM82.353 20.564c.658-1.78 3.191-8.667 3.191-8.667-.033.066.657-1.812 1.051-2.966l.559 2.669s1.514 7.415 1.842 8.964h-6.643zM92.219.562h-6.182c-1.906 0-3.355.56-4.178 2.57L69.987 31.538h8.386l1.678-4.647h10.262c.23 1.087.954 4.647.954 4.647h7.401L92.22.562zM28.087.562l-7.828 21.123-.855-4.284c-1.447-4.943-5.986-10.314-11.05-12.984l7.17 27.089h8.452L36.539.562h-8.451z"/><path d="M12.991.562H.132L0 1.188c10.031 2.571 16.675 8.767 19.404 16.215L16.608 3.166C16.148 1.188 14.733.627 12.99.562z"/></symbol></defs></svg>