<svg xmlns="http://www.w3.org/2000/svg" width="212" height="103" fill="none"><g clip-path="url(#a)"><g filter="url(#b)"><rect width="212" height="103" fill="#D9D9D9" fill-opacity=".05" rx="17"/><rect width="211" height="102" x=".5" y=".5" stroke="url(#c)" rx="16.5"/></g><path fill="#fff" d="M71.1 34.06c-1.29 1.587-3.353 2.84-5.416 2.66-.257-2.146.752-4.427 1.934-5.836 1.29-1.632 3.546-2.795 5.372-2.884.215 2.236-.623 4.427-1.89 6.06Zm1.868 3.085c-2.986-.179-5.543 1.766-6.961 1.766-1.44 0-3.61-1.677-5.974-1.632-3.072.045-5.93 1.856-7.499 4.74-3.223 5.77-.837 14.31 2.278 19.006 1.526 2.326 3.352 4.875 5.759 4.785 2.277-.09 3.18-1.543 5.93-1.543 2.772 0 3.567 1.543 5.973 1.499 2.493-.045 4.061-2.326 5.587-4.651 1.74-2.639 2.45-5.21 2.492-5.344-.043-.045-4.813-1.946-4.856-7.67-.043-4.785 3.76-7.065 3.932-7.2-2.148-3.309-5.5-3.667-6.66-3.756Zm17.254-6.484v34.858h5.2V53.602h7.198c6.575 0 11.195-4.696 11.195-11.493 0-6.797-4.534-11.448-11.023-11.448h-12.57Zm5.2 4.561h5.995c4.512 0 7.091 2.505 7.091 6.91 0 4.404-2.579 6.93-7.112 6.93h-5.974v-13.84Zm27.89 30.566c3.266 0 6.296-1.722 7.671-4.45h.107v4.181h4.813V48.17c0-5.031-3.867-8.274-9.819-8.274-5.522 0-9.605 3.287-9.755 7.804h4.684c.387-2.147 2.299-3.555 4.92-3.555 3.181 0 4.964 1.543 4.964 4.382v1.923l-6.489.403c-6.038.38-9.304 2.951-9.304 7.423 0 4.517 3.374 7.513 8.208 7.513Zm1.397-4.137c-2.772 0-4.534-1.386-4.534-3.51 0-2.191 1.697-3.466 4.942-3.667l5.78-.38v1.967c0 3.265-2.664 5.59-6.188 5.59ZM142.328 75c5.071 0 7.456-2.012 9.54-8.117L161 40.231h-5.286l-6.124 20.593h-.107l-6.124-20.593h-5.436l8.81 25.378-.473 1.543c-.795 2.616-2.084 3.622-4.383 3.622a15.65 15.65 0 0 1-1.526-.09v4.182c.301.09 1.59.134 1.977.134Z"/></g><defs><linearGradient id="c" x1="106" x2="106" y1="0" y2="103" gradientUnits="userSpaceOnUse"><stop stop-color="#BCB046"/><stop offset=".469" stop-color="#1B2E8E"/><stop offset="1" stop-color="#CC29E7"/></linearGradient><clipPath id="a"><path fill="#fff" d="M0 0h212v103H0z"/></clipPath><filter id="b" width="244" height="135" x="-16" y="-16" color-interpolation-filters="sRGB" filterUnits="userSpaceOnUse"><feFlood flood-opacity="0" result="BackgroundImageFix"/><feGaussianBlur in="BackgroundImageFix" stdDeviation="8"/><feComposite in2="SourceAlpha" operator="in" result="effect1_backgroundBlur_1019_78"/><feBlend in="SourceGraphic" in2="effect1_backgroundBlur_1019_78" result="shape"/></filter></defs></svg>