<svg xmlns="http://www.w3.org/2000/svg" width="110" height="47" fill="none"><path fill="#fff" d="M20.1 6.06c-1.29 1.587-3.353 2.84-5.416 2.66-.257-2.146.752-4.427 1.934-5.836C17.908 1.252 20.164.09 21.99 0c.215 2.236-.623 4.427-1.89 6.06Zm1.868 3.085c-2.986-.179-5.543 1.767-6.961 1.767-1.44 0-3.61-1.677-5.974-1.633-3.072.045-5.93 1.856-7.499 4.74-3.223 5.77-.838 14.31 2.278 19.006 1.526 2.326 3.352 4.875 5.759 4.785 2.277-.09 3.18-1.543 5.93-1.543 2.772 0 3.567 1.543 5.973 1.498 2.493-.044 4.061-2.325 5.587-4.65 1.74-2.639 2.45-5.21 2.492-5.344-.043-.045-4.813-1.946-4.856-7.67-.043-4.785 3.76-7.065 3.932-7.2-2.148-3.309-5.5-3.666-6.66-3.756Zm17.254-6.484v34.858h5.2V25.602h7.198c6.575 0 11.195-4.696 11.195-11.493 0-6.797-4.534-11.448-11.023-11.448h-12.57Zm5.2 4.561h5.995c4.512 0 7.09 2.504 7.09 6.91 0 4.404-2.578 6.93-7.111 6.93h-5.974V7.223Zm27.89 30.566c3.266 0 6.296-1.722 7.67-4.45h.108v4.181h4.813V20.17c0-5.032-3.867-8.274-9.82-8.274-5.521 0-9.604 3.287-9.754 7.804h4.684c.387-2.147 2.3-3.555 4.92-3.555 3.18 0 4.964 1.543 4.964 4.382v1.923l-6.49.403c-6.037.38-9.303 2.951-9.303 7.423 0 4.517 3.374 7.513 8.208 7.513Zm1.397-4.137c-2.772 0-4.534-1.386-4.534-3.51 0-2.191 1.698-3.466 4.942-3.667l5.78-.38v1.967c0 3.265-2.664 5.59-6.188 5.59ZM91.328 47c5.07 0 7.456-2.012 9.54-8.117L110 12.231h-5.286l-6.123 20.593h-.108L92.36 12.231h-5.436l8.81 25.378-.473 1.543c-.795 2.616-2.084 3.622-4.383 3.622-.408 0-1.204-.045-1.526-.09v4.182c.301.09 1.59.134 1.977.134Z"/></svg>