<svg xmlns="http://www.w3.org/2000/svg" width="151" height="30" fill="none"><g clip-path="url(#a)"><path fill="#F7931A" d="M31.053 18.63c-2.105 8.036-10.66 12.927-19.106 10.923C3.504 27.549-1.636 19.41.471 11.375 2.575 3.338 11.129-1.553 19.574.45c8.446 2.003 13.585 10.143 11.48 18.18Z"/><path fill="#fff" d="M22.713 12.865c.314-1.996-1.284-3.07-3.468-3.785l.709-2.704-1.73-.41-.69 2.633c-.454-.108-.921-.21-1.385-.31l.694-2.65-1.729-.41-.708 2.702a60.169 60.169 0 0 1-1.105-.247l.002-.008-2.385-.567-.46 1.758s1.283.28 1.256.297c.7.166.827.608.806.957l-.807 3.08c.048.012.11.029.18.055l-.183-.043-1.131 4.315c-.086.202-.303.506-.793.39.017.025-1.257-.298-1.257-.298l-.859 1.884 2.25.534c.42.1.83.204 1.234.303l-.716 2.734 1.728.41.709-2.705c.472.122.93.234 1.378.34l-.706 2.693 1.73.41.716-2.73c2.949.532 5.167.318 6.1-2.22.753-2.044-.037-3.223-1.589-3.992 1.13-.248 1.982-.955 2.209-2.416Zm-3.952 5.273c-.535 2.043-4.151.939-5.324.662l.95-3.623c1.172.278 4.932.83 4.374 2.96Zm.535-5.303c-.488 1.86-3.498.915-4.475.683l.862-3.286c.976.232 4.12.664 3.613 2.603ZM46.198 9.077c1.278 0 2.383.218 3.311.646a6.623 6.623 0 0 1 2.32 1.747 7.226 7.226 0 0 1 1.354 2.582c.291.988.437 2.05.437 3.189 0 1.747-.337 3.398-1.016 4.954a12.805 12.805 0 0 1-2.774 4.064c-1.171 1.151-2.555 2.06-4.15 2.73-1.593.671-3.324 1.007-5.184 1.007-.24 0-.663-.007-1.26-.018a19.336 19.336 0 0 1-2.052-.17 25.137 25.137 0 0 1-2.455-.458c-.863-.2-1.683-.48-2.455-.834L39.178.918 45.36.006 42.89 9.8a9.947 9.947 0 0 1 1.594-.531 7.427 7.427 0 0 1 1.715-.192ZM41.012 25.33c.93 0 1.808-.218 2.632-.646a6.855 6.855 0 0 0 2.138-1.727 8.6 8.6 0 0 0 1.416-2.45c.344-.91.519-1.86.519-2.85 0-1.214-.214-2.161-.639-2.846-.425-.682-1.212-1.025-2.354-1.025-.375 0-.857.068-1.455.19a3.7 3.7 0 0 0-1.618.799l-2.632 10.4c.159.027.299.052.419.076.117.026.246.044.375.057.137.014.293.022.482.022h.717ZM60.032 29.468h-5.906L59.114 9.5h5.945l-5.027 19.967Zm2.874-22.4a3.79 3.79 0 0 1-2.235-.701c-.669-.465-1-1.181-1-2.146 0-.53.114-1.028.338-1.498.228-.469.526-.872.9-1.215.373-.34.805-.613 1.295-.817a4.132 4.132 0 0 1 1.579-.303 3.79 3.79 0 0 1 2.233.701c.663.47.996 1.186.996 2.146a3.4 3.4 0 0 1-.34 1.5 3.957 3.957 0 0 1-.896 1.216c-.37.341-.806.612-1.295.815a4.061 4.061 0 0 1-1.575.302ZM71.479 4.912 77.664 4l-1.519 5.886h6.625l-1.196 4.63h-6.585L73.235 21.5a7.553 7.553 0 0 0-.278 1.631c-.03.508.038.944.198 1.31.158.369.444.652.857.853.412.204 1.002.307 1.775.307.637 0 1.258-.058 1.858-.172.597-.113 1.201-.27 1.813-.474l.44 4.329c-.797.278-1.662.518-2.593.72-.932.204-2.036.302-3.312.302-1.835 0-3.257-.259-4.27-.775-1.013-.52-1.728-1.23-2.156-2.129-.422-.896-.611-1.928-.558-3.092.054-1.166.24-2.392.558-3.683l3.912-15.715Z"/><path fill="#fff" d="M81.265 21.494c0-1.72.293-3.341.878-4.86a11.858 11.858 0 0 1 2.516-3.989c1.087-1.134 2.412-2.034 3.971-2.693 1.552-.657 3.29-.988 5.205-.988 1.198 0 2.269.108 3.21.324.947.218 1.802.5 2.576.853l-2.036 4.407a19.717 19.717 0 0 0-1.656-.55c-.571-.168-1.269-.249-2.094-.249-1.971 0-3.53.647-4.689 1.935-1.155 1.29-1.737 3.025-1.737 5.203 0 1.29.292 2.334.88 3.132.584.798 1.663 1.195 3.23 1.195.774 0 1.52-.077 2.235-.227.72-.151 1.357-.343 1.917-.569l.44 4.517a22.14 22.14 0 0 1-2.474.743c-.905.21-1.983.32-3.233.32-1.65 0-3.046-.23-4.189-.683-1.143-.46-2.087-1.069-2.831-1.841a6.864 6.864 0 0 1-1.617-2.717 10.644 10.644 0 0 1-.502-3.263ZM107.499 29.997c-1.409 0-2.633-.204-3.672-.609-1.035-.404-1.893-.972-2.571-1.708-.68-.732-1.188-1.6-1.537-2.6-.348-.999-.515-2.105-.515-3.318 0-1.521.256-3.042.775-4.558a12.704 12.704 0 0 1 2.296-4.099c1.006-1.215 2.247-2.209 3.709-2.984 1.459-.77 3.138-1.157 5.024-1.157 1.384 0 2.602.205 3.655.61 1.048.403 1.911.976 2.593 1.708a7.328 7.328 0 0 1 1.533 2.6c.347.998.519 2.108.519 3.321 0 1.517-.254 3.037-.756 4.559a12.953 12.953 0 0 1-2.235 4.098c-.983 1.214-2.213 2.207-3.69 2.979-1.475.771-3.185 1.158-5.128 1.158Zm2.952-16.247c-.875 0-1.649.242-2.312.72a6.304 6.304 0 0 0-1.674 1.823 8.76 8.76 0 0 0-1.021 2.41 9.922 9.922 0 0 0-.337 2.486c0 1.267.215 2.254.637 2.964.428.706 1.197 1.062 2.315 1.062.879 0 1.649-.24 2.315-.723a6.344 6.344 0 0 0 1.674-1.822 8.786 8.786 0 0 0 1.021-2.41c.223-.872.337-1.703.337-2.487 0-1.263-.214-2.252-.64-2.961-.426-.707-1.198-1.062-2.315-1.062ZM125.743 29.468h-5.911L124.819 9.5h5.949l-5.025 19.967Zm2.869-22.4a3.783 3.783 0 0 1-2.233-.701c-.665-.465-.999-1.181-.999-2.146 0-.53.115-1.028.34-1.498.225-.469.525-.872.899-1.215a4.44 4.44 0 0 1 1.296-.817 4.105 4.105 0 0 1 1.574-.303c.825 0 1.571.234 2.236.701.664.47 1 1.186 1 2.146 0 .532-.12 1.032-.343 1.5a3.942 3.942 0 0 1-.895 1.216c-.374.341-.805.612-1.296.815a4.07 4.07 0 0 1-1.579.302ZM135.024 10.409c.449-.125.949-.275 1.494-.438a23.09 23.09 0 0 1 4.111-.796c.837-.09 1.791-.135 2.85-.135 3.115 0 5.262.863 6.447 2.584 1.185 1.72 1.39 4.076.621 7.06l-2.716 10.782h-5.945l2.633-10.555c.161-.659.287-1.296.38-1.918.094-.617.088-1.16-.021-1.631a1.946 1.946 0 0 0-.736-1.14c-.39-.29-.979-.437-1.778-.437-.77 0-1.553.08-2.352.231l-3.871 15.45h-5.947l4.83-19.058Z"/></g><defs><clipPath id="a"><path fill="#fff" d="M0 0h151v30H0z"/></clipPath></defs></svg>