<svg xmlns="http://www.w3.org/2000/svg" width="131" height="41" fill="none"><g clip-path="url(#a)"><path fill="#fff" d="M56.767 40.408H46.155L52.792.72h10.611l-6.636 39.69ZM94.833 1.69C92.74.887 89.42 0 85.315 0c-10.48 0-17.86 5.404-17.905 13.13-.087 5.701 5.284 8.867 9.3 10.768 4.106 1.942 5.502 3.21 5.502 4.941-.042 2.66-3.318 3.885-6.373 3.885-4.237 0-6.507-.632-9.957-2.111l-1.397-.635L63 38.888c2.489 1.096 7.074 2.07 11.835 2.112 11.135 0 18.384-5.32 18.47-13.554.042-4.518-2.794-7.98-8.908-10.81-3.711-1.815-5.984-3.04-5.984-4.898.043-1.689 1.922-3.419 6.112-3.419 3.45-.085 5.985.717 7.905 1.52l.96.421 1.443-8.57ZM109.34 26.348c.874-2.28 4.237-11.105 4.237-11.105-.044.085.872-2.322 1.396-3.8l.741 3.42s2.01 9.5 2.446 11.485h-8.82ZM122.439.72h-8.208c-2.532 0-4.455.718-5.547 3.293L92.921 40.408h11.135l2.227-5.954h13.625c.305 1.394 1.266 5.954 1.266 5.954H131L122.439.719ZM37.291.72 26.9 27.783l-1.136-5.49C23.84 15.962 17.816 9.08 11.09 5.659l9.52 34.708h11.221L48.512.72h-11.22Z"/><path fill="#FAA61A" d="M17.248.72H.175L0 1.52c13.318 3.294 22.139 11.233 25.763 20.775L22.05 4.056C21.441 1.52 19.562.803 17.248.719Z"/></g><defs><clipPath id="a"><path fill="#fff" d="M0 0h131v41H0z"/></clipPath></defs></svg>